<svg xmlns="http://www.w3.org/2000/svg" width="512" height="512" viewBox="0 0 512 512" desc="Caribetour.es icon">
<g>
<path d="M 379.27 458.78 C368.79,461.78 367.07,461.99 353.77,461.86 C328.78,461.61 310.50,459.57 310.50,457.04 C310.50,455.41 322.26,452.15 328.50,452.04 C332.94,451.97 341.40,449.93 344.80,448.11 C348.63,446.06 347.25,444.33 339.25,441.14 C323.67,434.93 307.93,432.95 267.80,432.14 C245.04,431.68 235.76,431.16 234.89,430.29 C233.04,428.44 237.10,427.27 256.99,423.90 C278.96,420.18 281.05,419.72 281.30,418.54 C281.61,417.07 276.28,416.29 257.09,415.00 C247.41,414.34 236.84,413.51 233.58,413.15 L 227.66 412.50 L 225.32 405.00 C222.93,397.33 220.43,394.10 211.18,386.75 C208.17,384.35 208.00,384.00 209.86,384.00 C211.04,384.00 212.00,383.55 212.00,383.00 C212.00,380.43 215.92,382.44 218.75,386.45 C222.43,391.67 227.10,394.83 235.78,398.00 C241.46,400.07 243.19,400.23 253.78,399.70 C260.23,399.37 270.00,398.20 275.50,397.10 C288.56,394.49 318.06,386.76 324.78,384.18 C328.41,382.78 330.90,382.39 332.78,382.93 C334.27,383.35 339.10,383.79 343.50,383.90 C364.49,384.43 395.78,391.88 403.76,398.26 C406.48,400.42 403.03,402.00 395.58,402.00 C389.37,402.00 362.58,404.56 344.78,406.86 C339.40,407.55 337.11,408.44 338.10,409.44 C338.34,409.68 344.16,409.47 351.02,408.97 C369.62,407.62 388.22,407.82 401.06,409.50 C415.40,411.38 430.57,413.86 434.50,414.96 C436.15,415.43 442.11,416.61 447.74,417.59 C467.72,421.07 464.69,422.35 434.67,423.12 C410.06,423.75 385.79,425.97 376.15,428.47 C369.87,430.11 369.34,430.49 370.87,432.35 C373.26,435.23 387.41,439.09 417.37,445.03 C432.39,448.01 440.68,450.50 449.27,454.59 C457.57,458.55 450.32,460.00 434.60,457.54 C428.85,456.64 417.07,455.86 407.47,455.75 C391.07,455.57 390.12,455.67 379.27,458.78 Z" fill="rgb(16,74,117)"/>
<path d="M 223.57 400.30 C224.21,401.70 224.77,403.23 225.32,405.00 L 227.66 412.50 L 233.58 413.15 C235.77,413.40 241.28,413.85 247.60,414.32 C222.80,412.84 188.39,411.67 158.36,411.55 C143.10,411.49 142.00,410.81 142.00,401.47 C142.00,397.16 142.46,394.86 143.50,394.00 C145.53,392.31 145.39,389.41 142.91,382.41 C141.06,377.15 140.89,375.10 141.45,363.78 C142.01,352.22 141.88,350.69 140.03,347.05 C137.67,342.43 135.44,332.56 134.49,322.50 C133.99,317.28 134.33,313.08 135.81,306.00 C136.91,300.77 138.09,292.45 138.45,287.50 C140.07,264.78 143.01,248.46 147.60,236.75 C149.87,230.96 150.00,229.44 150.00,209.31 L 150.00 188.00 L 147.45 188.00 C140.35,188.00 131.09,197.67 125.56,210.85 C123.46,215.86 121.35,219.72 120.87,219.42 C120.39,219.12 120.01,216.32 120.01,213.19 C120.03,204.83 123.00,194.94 127.65,187.79 C130.00,184.18 128.89,183.39 123.75,185.04 C117.99,186.89 105.53,199.40 101.18,207.72 C97.11,215.48 96.00,216.22 96.00,211.19 C96.00,202.44 103.05,186.77 110.95,178.00 C113.18,175.52 115.00,173.16 115.00,172.75 C115.00,170.33 108.31,173.78 100.66,180.14 C92.03,187.33 90.88,186.73 96.47,177.95 C100.59,171.49 100.68,171.00 97.75,171.01 C93.97,171.03 85.45,176.63 80.34,182.46 C77.68,185.49 75.16,187.98 74.75,187.99 C73.32,188.01 74.01,180.91 76.00,175.26 C79.44,165.48 78.87,165.05 71.00,171.50 C65.65,175.89 63.00,177.04 63.00,174.98 C63.00,174.42 64.35,170.98 66.00,167.34 C69.22,160.23 69.53,159.00 68.05,159.00 C66.25,159.00 55.30,168.83 50.41,174.85 C44.71,181.85 43.00,182.47 43.00,177.52 C43.00,170.73 49.69,158.43 57.40,151.05 C59.38,149.16 61.00,147.25 61.00,146.80 C61.00,146.36 57.85,146.00 53.99,146.00 C47.27,146.00 47.03,145.92 48.22,144.03 C51.05,139.48 66.06,135.13 81.75,134.30 C90.47,133.84 93.00,133.39 93.00,132.30 C93.00,130.11 82.84,125.98 74.25,124.67 C69.99,124.02 66.57,123.04 66.65,122.50 C66.74,121.95 68.76,120.90 71.15,120.18 C76.23,118.63 84.70,119.57 100.07,123.39 C105.26,124.68 109.84,125.54 110.25,125.31 C111.75,124.46 110.94,119.68 108.47,114.76 C107.08,111.99 106.14,109.53 106.37,109.29 C106.94,108.72 115.75,113.23 122.49,117.53 C128.34,121.28 130.00,121.75 130.00,119.66 C130.00,117.84 118.96,107.53 111.10,102.00 C102.81,96.18 98.00,92.05 98.00,90.77 C98.00,89.24 105.05,90.63 112.57,93.64 C116.16,95.07 119.35,95.98 119.68,95.65 C120.59,94.74 117.46,90.48 109.90,82.32 C100.15,71.81 100.59,70.32 111.50,77.00 C115.09,79.20 118.25,81.00 118.52,81.00 C119.84,81.00 118.67,77.08 115.85,72.09 C112.65,66.41 107.91,60.24 100.26,51.79 C93.41,44.22 94.64,42.87 103.14,48.64 C111.23,54.14 118.66,60.53 127.25,69.37 C131.51,73.75 135.31,77.02 135.70,76.63 C136.09,76.24 135.59,72.23 134.59,67.71 C131.66,54.52 131.59,53.91 133.15,54.50 C135.40,55.37 142.68,67.50 150.54,83.50 C156.92,96.49 159.82,104.46 162.43,116.25 C162.76,117.76 163.62,119.00 164.34,119.00 C165.05,119.00 168.76,116.18 172.58,112.74 C179.11,106.86 198.51,92.45 207.57,86.76 C215.34,81.87 238.71,70.00 240.55,70.00 C241.80,70.00 239.57,72.68 233.69,78.25 C228.90,82.79 224.99,87.29 224.99,88.25 C224.99,88.30 224.99,88.35 224.99,88.40 C224.99,88.94 224.99,89.33 225.19,89.57 C225.71,90.21 227.63,89.69 234.75,87.80 L 235.50 87.60 C248.10,84.24 256.22,83.28 265.50,84.02 C269.90,84.38 272.49,84.74 271.25,84.83 C270.01,84.93 269.00,85.36 269.00,85.80 C269.00,86.24 263.73,88.38 257.29,90.55 C240.25,96.30 229.99,102.98 238.17,103.01 C249.19,103.05 251.83,106.01 242.66,108.04 C234.81,109.78 227.69,112.37 227.28,113.63 C227.06,114.30 228.77,115.04 231.46,115.44 C238.40,116.48 246.47,119.51 246.80,121.20 C247.13,122.93 240.86,123.98 230.00,123.99 C223.54,124.00 210.30,126.08 208.13,127.42 C205.66,128.94 207.30,129.80 213.75,130.36 C217.46,130.68 222.20,131.23 224.28,131.58 L 228.05 132.22 L 223.49 137.57 L 218.93 142.91 L 221.21 144.39 C222.47,145.20 225.75,146.41 228.50,147.06 C240.23,149.87 258.00,160.44 258.00,164.62 C258.00,166.56 257.36,166.40 249.68,162.51 C242.88,159.06 234.57,157.18 231.43,158.39 C229.08,159.29 230.82,161.14 239.55,167.04 C247.80,172.60 254.65,179.85 259.54,188.21 C264.82,197.21 264.25,198.15 257.26,192.00 C252.71,187.99 248.23,186.56 249.35,189.48 C250.73,193.05 252.16,208.72 251.55,213.38 C250.70,219.76 247.46,227.32 245.80,226.77 C245.06,226.52 244.09,222.56 243.37,216.83 C242.19,207.46 238.50,195.97 236.46,195.31 C235.85,195.11 234.91,198.38 234.22,203.14 C233.57,207.63 232.79,211.54 232.50,211.83 C231.41,212.92 229.98,210.21 225.96,199.51 C219.52,182.36 215.13,174.18 213.07,175.46 C212.48,175.82 212.00,179.20 212.00,183.00 C212.00,186.79 211.54,190.17 210.98,190.51 C210.39,190.87 207.36,185.77 203.88,178.57 C200.53,171.65 197.36,165.72 196.83,165.40 C194.79,164.14 194.78,166.19 196.80,172.34 C199.46,180.43 200.67,189.00 199.16,189.00 C198.55,189.00 196.54,185.74 194.68,181.75 C192.82,177.76 190.31,173.38 189.09,172.00 L 186.87 169.50 L 187.62 175.00 C188.75,183.23 188.64,189.27 187.36,189.71 C186.73,189.92 185.20,188.38 183.96,186.30 C180.53,180.55 174.86,175.00 172.43,175.00 C170.56,175.00 169.93,176.24 167.68,184.25 C162.27,203.56 161.55,209.70 161.66,235.50 C161.74,254.77 162.13,261.27 163.63,268.50 C165.05,275.34 165.28,278.64 164.58,282.24 C163.79,286.35 164.09,288.27 166.85,296.74 C168.60,302.11 170.02,308.32 170.01,310.54 C170.01,312.96 171.43,317.96 173.59,323.04 C179.78,337.63 181.19,342.17 180.56,345.53 C180.12,347.85 180.57,349.57 182.28,352.09 C183.55,353.96 186.00,357.98 187.73,361.02 C189.47,364.06 192.10,367.66 193.58,369.02 C195.06,370.38 197.80,373.86 199.67,376.75 C201.53,379.64 203.47,382.00 203.96,382.00 C204.46,382.00 205.13,382.83 205.45,383.85 C205.77,384.86 208.52,387.41 211.56,389.50 C214.60,391.59 218.63,395.15 220.52,397.40 C221.83,398.96 222.98,400.03 223.57,400.30 ZM 271.32 367.33 C261.60,370.18 240.72,370.12 237.83,367.23 C236.62,366.02 237.76,363.64 242.98,356.50 C246.51,351.67 253.27,339.95 259.69,327.50 C266.58,314.15 279.98,275.49 284.47,256.00 C284.66,255.18 285.75,250.68 286.88,246.00 C288.77,238.28 292.38,219.13 293.72,209.76 C294.23,206.24 296.42,203.09 297.57,204.24 C299.92,206.58 298.50,273.54 295.53,300.50 C292.36,329.30 288.05,352.14 284.47,359.07 C282.72,362.45 278.13,365.33 271.32,367.33 ZM 295.43 372.50 C290.95,375.92 288.96,376.36 283.00,375.27 C278.40,374.42 277.65,372.98 280.31,370.10 C292.75,356.60 297.64,338.50 300.98,293.50 C302.95,267.02 303.49,265.30 306.23,276.74 C307.28,281.11 307.49,283.70 306.84,284.10 C305.77,284.76 307.75,293.00 308.97,293.00 C309.33,293.00 310.44,296.71 311.43,301.25 C314.96,317.30 319.18,333.51 320.09,334.45 C320.59,334.97 321.00,338.48 321.00,342.24 C321.00,349.98 319.94,352.59 311.40,365.75 C306.73,372.94 305.67,374.00 303.16,374.00 C300.62,374.00 300.33,373.70 300.76,371.50 C301.38,368.24 300.89,368.33 295.43,372.50 ZM 332.45 382.84 C330.62,382.44 328.21,382.86 324.78,384.18 C318.06,386.76 288.56,394.49 275.50,397.10 C270.00,398.20 260.23,399.37 253.78,399.70 C243.19,400.23 241.46,400.07 235.78,398.00 C227.10,394.83 222.43,391.67 218.75,386.45 C217.11,384.11 215.09,382.46 213.69,381.99 C214.42,381.90 215.00,381.26 215.00,380.50 C215.00,379.21 218.14,379.00 237.25,378.99 C249.49,378.99 275.12,378.69 294.21,378.33 L 328.93 377.69 L 329.89 380.21 C330.38,381.50 330.99,382.32 332.45,382.84 ZM 266.79 415.71 C274.13,416.30 278.15,416.82 280.00,417.43 C277.80,416.86 273.18,416.28 266.79,415.71 ZM 212.60 387.89 C216.08,390.72 218.50,392.93 220.31,395.12 C218.18,392.84 215.36,390.17 212.60,387.89 ZM 343.66 383.89 C352.95,384.14 364.29,385.75 374.71,388.02 C364.24,385.74 352.85,384.13 343.50,383.90 C342.92,383.88 342.32,383.86 341.73,383.84 C342.34,383.86 342.98,383.88 343.66,383.89 ZM 240.77 426.92 C236.27,427.93 234.53,428.69 234.49,429.51 C234.53,428.67 236.30,427.90 240.77,426.92 Z" fill="rgb(48,48,46)"/>
<path d="M 0.00 256.00 L 0.00 0.00 L 256.00 0.00 L 512.00 0.00 L 512.00 256.00 L 512.00 512.00 L 256.00 512.00 L 0.00 512.00 L 0.00 256.00 ZM 379.27 458.78 C390.12,455.67 391.07,455.57 407.47,455.75 C417.07,455.86 428.85,456.64 434.60,457.54 C450.32,460.00 457.57,458.55 449.27,454.59 C440.68,450.50 432.39,448.01 417.37,445.03 C387.41,439.09 373.26,435.23 370.87,432.35 C369.34,430.49 369.87,430.11 376.15,428.47 C385.79,425.97 410.06,423.75 434.67,423.12 C464.69,422.35 467.72,421.07 447.74,417.59 C442.11,416.61 436.15,415.43 434.50,414.96 C430.57,413.86 415.40,411.38 401.06,409.50 C388.22,407.82 369.62,407.62 351.02,408.97 C344.16,409.47 338.34,409.68 338.10,409.44 C337.11,408.44 339.40,407.55 344.78,406.86 C362.58,404.56 389.37,402.00 395.58,402.00 C403.03,402.00 406.48,400.42 403.76,398.26 C395.81,391.91 364.57,384.44 343.66,383.89 C332.74,383.61 331.01,383.14 329.89,380.21 L 328.93 377.69 L 294.21 378.33 C275.12,378.69 249.49,378.99 237.25,378.99 C218.14,379.00 215.00,379.21 215.00,380.50 C215.00,381.33 214.32,382.00 213.50,382.00 C212.68,382.00 212.00,382.45 212.00,383.00 C212.00,383.55 211.04,384.00 209.86,384.00 C208.06,384.00 208.33,384.48 211.61,387.09 C217.50,391.77 224.00,398.63 223.98,400.15 C223.97,400.89 222.41,399.66 220.52,397.40 C218.63,395.15 214.60,391.59 211.56,389.50 C208.52,387.41 205.77,384.86 205.45,383.85 C205.13,382.83 204.46,382.00 203.96,382.00 C203.47,382.00 201.53,379.64 199.67,376.75 C197.80,373.86 195.06,370.38 193.58,369.02 C192.10,367.66 189.47,364.06 187.73,361.02 C186.00,357.98 183.55,353.96 182.28,352.09 C180.57,349.57 180.12,347.85 180.56,345.53 C181.19,342.17 179.78,337.63 173.59,323.04 C171.43,317.96 170.01,312.96 170.01,310.54 C170.02,308.32 168.60,302.11 166.85,296.74 C164.09,288.27 163.79,286.35 164.58,282.24 C165.28,278.64 165.05,275.34 163.63,268.50 C162.13,261.27 161.74,254.77 161.66,235.50 C161.55,209.70 162.27,203.56 167.68,184.25 C169.93,176.24 170.56,175.00 172.43,175.00 C174.86,175.00 180.53,180.55 183.96,186.30 C185.20,188.38 186.73,189.92 187.36,189.71 C188.64,189.27 188.75,183.23 187.62,175.00 L 186.87 169.50 L 189.09 172.00 C190.31,173.38 192.82,177.76 194.68,181.75 C196.54,185.74 198.55,189.00 199.16,189.00 C200.67,189.00 199.46,180.43 196.80,172.34 C194.78,166.19 194.79,164.14 196.83,165.40 C197.36,165.72 200.53,171.65 203.88,178.57 C207.36,185.77 210.39,190.87 210.98,190.51 C211.54,190.17 212.00,186.79 212.00,183.00 C212.00,179.20 212.48,175.82 213.07,175.46 C215.13,174.18 219.52,182.36 225.96,199.51 C229.98,210.21 231.41,212.92 232.50,211.83 C232.79,211.54 233.57,207.63 234.22,203.14 C234.91,198.38 235.85,195.11 236.46,195.31 C238.50,195.97 242.19,207.46 243.37,216.83 C244.09,222.56 245.06,226.52 245.80,226.77 C247.46,227.32 250.70,219.76 251.55,213.38 C252.16,208.72 250.73,193.05 249.35,189.48 C248.23,186.56 252.71,187.99 257.26,192.00 C264.25,198.15 264.82,197.21 259.54,188.21 C254.65,179.85 247.80,172.60 239.55,167.04 C230.82,161.14 229.08,159.29 231.43,158.39 C234.57,157.18 242.88,159.06 249.68,162.51 C257.36,166.40 258.00,166.56 258.00,164.62 C258.00,160.44 240.23,149.87 228.50,147.06 C225.75,146.41 222.47,145.20 221.21,144.39 L 218.93 142.91 L 223.49 137.57 L 228.05 132.22 L 224.28 131.58 C222.20,131.23 217.46,130.68 213.75,130.36 C207.30,129.80 205.66,128.94 208.13,127.42 C210.30,126.08 223.54,124.00 230.00,123.99 C240.86,123.98 247.13,122.93 246.80,121.20 C246.47,119.51 238.40,116.48 231.46,115.44 C228.77,115.04 227.06,114.30 227.28,113.63 C227.69,112.37 234.81,109.78 242.66,108.04 C251.83,106.01 249.19,103.05 238.17,103.01 C229.99,102.98 240.25,96.30 257.29,90.55 C263.73,88.38 269.00,86.24 269.00,85.80 C269.00,85.36 270.01,84.93 271.25,84.83 C272.49,84.74 269.90,84.38 265.50,84.02 C256.22,83.28 248.10,84.24 235.50,87.60 C224.74,90.46 225.00,90.45 224.99,88.25 C224.99,87.29 228.90,82.79 233.69,78.25 C239.57,72.68 241.80,70.00 240.55,70.00 C238.71,70.00 215.34,81.87 207.57,86.76 C198.51,92.45 179.11,106.86 172.58,112.74 C168.76,116.18 165.05,119.00 164.34,119.00 C163.62,119.00 162.76,117.76 162.43,116.25 C159.82,104.46 156.92,96.49 150.54,83.50 C142.68,67.50 135.40,55.37 133.15,54.50 C131.59,53.91 131.66,54.52 134.59,67.71 C135.59,72.23 136.09,76.24 135.70,76.63 C135.31,77.02 131.51,73.75 127.25,69.37 C118.66,60.53 111.23,54.14 103.14,48.64 C94.64,42.87 93.41,44.22 100.26,51.79 C107.91,60.24 112.65,66.41 115.85,72.09 C118.67,77.08 119.84,81.00 118.52,81.00 C118.25,81.00 115.09,79.20 111.50,77.00 C100.59,70.32 100.15,71.81 109.90,82.32 C117.46,90.48 120.59,94.74 119.68,95.65 C119.35,95.98 116.16,95.07 112.57,93.64 C105.05,90.63 98.00,89.24 98.00,90.77 C98.00,92.05 102.81,96.18 111.10,102.00 C118.96,107.53 130.00,117.84 130.00,119.66 C130.00,121.75 128.34,121.28 122.49,117.53 C115.75,113.23 106.94,108.72 106.37,109.29 C106.14,109.53 107.08,111.99 108.47,114.76 C110.94,119.68 111.75,124.46 110.25,125.31 C109.84,125.54 105.26,124.68 100.07,123.39 C84.70,119.57 76.23,118.63 71.15,120.18 C68.76,120.90 66.74,121.95 66.65,122.50 C66.57,123.04 69.99,124.02 74.25,124.67 C82.84,125.98 93.00,130.11 93.00,132.30 C93.00,133.39 90.47,133.84 81.75,134.30 C66.06,135.13 51.05,139.48 48.22,144.03 C47.03,145.92 47.27,146.00 53.99,146.00 C57.85,146.00 61.00,146.36 61.00,146.80 C61.00,147.25 59.38,149.16 57.40,151.05 C49.69,158.43 43.00,170.73 43.00,177.52 C43.00,182.47 44.71,181.85 50.41,174.85 C55.30,168.83 66.25,159.00 68.05,159.00 C69.53,159.00 69.22,160.23 66.00,167.34 C64.35,170.98 63.00,174.42 63.00,174.98 C63.00,177.04 65.65,175.89 71.00,171.50 C78.87,165.05 79.44,165.48 76.00,175.26 C74.01,180.91 73.32,188.01 74.75,187.99 C75.16,187.98 77.68,185.49 80.34,182.46 C85.45,176.63 93.97,171.03 97.75,171.01 C100.68,171.00 100.59,171.49 96.47,177.95 C90.88,186.73 92.03,187.33 100.66,180.14 C108.31,173.78 115.00,170.33 115.00,172.75 C115.00,173.16 113.18,175.52 110.95,178.00 C103.05,186.77 96.00,202.44 96.00,211.19 C96.00,216.22 97.11,215.48 101.18,207.72 C105.53,199.40 117.99,186.89 123.75,185.04 C128.89,183.39 130.00,184.18 127.65,187.79 C123.00,194.94 120.03,204.83 120.01,213.19 C120.01,216.32 120.39,219.12 120.87,219.42 C121.35,219.72 123.46,215.86 125.56,210.85 C131.09,197.67 140.35,188.00 147.45,188.00 L 150.00 188.00 L 150.00 209.31 C150.00,229.44 149.87,230.96 147.60,236.75 C143.01,248.46 140.07,264.78 138.45,287.50 C138.09,292.45 136.91,300.77 135.81,306.00 C134.33,313.08 133.99,317.28 134.49,322.50 C135.44,332.56 137.67,342.43 140.03,347.05 C141.88,350.69 142.01,352.22 141.45,363.78 C140.89,375.10 141.06,377.15 142.91,382.41 C145.39,389.41 145.53,392.31 143.50,394.00 C142.46,394.86 142.00,397.16 142.00,401.47 C142.00,410.81 143.10,411.49 158.36,411.55 C211.61,411.77 278.67,415.27 281.38,417.98 C282.84,419.44 278.65,420.44 254.44,424.42 C237.04,427.29 233.08,428.48 234.89,430.29 C235.76,431.16 245.04,431.68 267.80,432.14 C307.93,432.95 323.67,434.93 339.25,441.14 C347.25,444.33 348.63,446.06 344.80,448.11 C341.40,449.93 332.94,451.97 328.50,452.04 C322.26,452.15 310.50,455.41 310.50,457.04 C310.50,459.57 328.78,461.61 353.77,461.86 C367.07,461.99 368.79,461.78 379.27,458.78 ZM 295.43 372.50 C300.89,368.33 301.38,368.24 300.76,371.50 C300.33,373.70 300.62,374.00 303.16,374.00 C305.67,374.00 306.73,372.94 311.40,365.75 C319.94,352.59 321.00,349.98 321.00,342.24 C321.00,338.48 320.59,334.97 320.09,334.45 C319.18,333.51 314.96,317.30 311.43,301.25 C310.44,296.71 309.33,293.00 308.97,293.00 C307.75,293.00 305.77,284.76 306.84,284.10 C307.49,283.70 307.28,281.11 306.23,276.74 C303.49,265.30 302.95,267.02 300.98,293.50 C297.64,338.50 292.75,356.60 280.31,370.10 C277.65,372.98 278.40,374.42 283.00,375.27 C288.96,376.36 290.95,375.92 295.43,372.50 ZM 271.32 367.33 C278.13,365.33 282.72,362.45 284.47,359.07 C288.05,352.14 292.36,329.30 295.53,300.50 C298.50,273.54 299.92,206.58 297.57,204.24 C296.42,203.09 294.23,206.24 293.72,209.76 C292.38,219.13 288.77,238.28 286.88,246.00 C285.75,250.68 284.66,255.18 284.47,256.00 C279.98,275.49 266.58,314.15 259.69,327.50 C253.27,339.95 246.51,351.67 242.98,356.50 C237.76,363.64 236.62,366.02 237.83,367.23 C240.72,370.12 261.60,370.18 271.32,367.33 Z" fill="rgb(97,68,36)"/>
<path d="M 0.00 256.00 L 0.00 0.00 L 256.00 0.00 L 512.00 0.00 L 512.00 256.00 L 512.00 512.00 L 256.00 512.00 L 0.00 512.00 L 0.00 256.00 ZM 379.27 458.78 C390.12,455.67 391.07,455.57 407.47,455.75 C417.07,455.86 428.85,456.64 434.60,457.54 C450.32,460.00 457.57,458.55 449.27,454.59 C440.68,450.50 432.39,448.01 417.37,445.03 C387.41,439.09 373.26,435.23 370.87,432.35 C369.34,430.49 369.87,430.11 376.15,428.47 C385.79,425.97 410.06,423.75 434.67,423.12 C464.69,422.35 467.72,421.07 447.74,417.59 C442.11,416.61 436.15,415.43 434.50,414.96 C430.57,413.86 415.40,411.38 401.06,409.50 C388.22,407.82 369.62,407.62 351.02,408.97 C344.16,409.47 338.34,409.68 338.10,409.44 C337.11,408.44 339.40,407.55 344.78,406.86 C362.58,404.56 389.37,402.00 395.58,402.00 C403.03,402.00 406.48,400.42 403.76,398.26 C395.81,391.91 364.57,384.44 343.66,383.89 C332.88,383.61 331.00,383.13 329.95,380.37 C329.07,378.05 328.78,378.00 316.58,378.00 C309.73,378.00 303.88,377.61 303.58,377.13 C303.29,376.66 303.94,375.46 305.03,374.47 C307.28,372.43 315.65,359.62 318.86,353.29 C321.13,348.83 321.93,336.36 320.08,334.45 C319.27,333.61 316.49,323.00 311.58,302.00 C310.74,298.42 309.76,292.80 309.39,289.50 C309.03,286.20 308.39,283.05 307.98,282.50 C307.56,281.95 306.65,278.91 305.95,275.75 C303.60,265.12 302.91,267.60 300.98,293.50 C297.64,338.50 292.75,356.60 280.31,370.10 C277.30,373.36 278.49,374.60 285.57,375.54 C290.27,376.16 290.88,375.97 295.39,372.53 C300.39,368.72 301.89,368.47 300.13,371.75 C299.57,372.81 299.36,374.65 299.67,375.84 C300.20,377.88 299.88,378.00 293.87,378.09 C290.36,378.13 286.15,378.27 284.50,378.38 C282.85,378.50 266.54,378.69 248.25,378.80 C219.45,378.97 215.00,379.20 215.00,380.50 C215.00,381.33 214.32,382.00 213.50,382.00 C212.68,382.00 212.00,382.45 212.00,383.00 C212.00,383.55 211.04,384.00 209.86,384.00 C208.06,384.00 208.33,384.48 211.61,387.09 C217.50,391.77 224.00,398.63 223.98,400.15 C223.97,400.89 222.41,399.66 220.52,397.40 C218.63,395.15 214.60,391.59 211.56,389.50 C208.52,387.41 205.77,384.86 205.45,383.85 C205.13,382.83 204.46,382.00 203.96,382.00 C203.47,382.00 201.53,379.64 199.67,376.75 C197.80,373.86 195.06,370.38 193.58,369.02 C192.10,367.66 189.47,364.06 187.73,361.02 C186.00,357.98 183.55,353.96 182.28,352.09 C180.57,349.57 180.12,347.85 180.56,345.53 C181.19,342.17 179.78,337.63 173.59,323.04 C171.43,317.96 170.01,312.96 170.01,310.54 C170.02,308.32 168.60,302.11 166.85,296.74 C164.09,288.27 163.79,286.35 164.58,282.24 C165.28,278.64 165.05,275.34 163.63,268.50 C162.13,261.27 161.74,254.77 161.66,235.50 C161.55,209.70 162.27,203.56 167.68,184.25 C169.93,176.24 170.56,175.00 172.43,175.00 C174.86,175.00 180.53,180.55 183.96,186.30 C185.20,188.38 186.73,189.92 187.36,189.71 C188.64,189.27 188.75,183.23 187.62,175.00 L 186.87 169.50 L 189.09 172.00 C190.31,173.38 192.82,177.76 194.68,181.75 C196.54,185.74 198.55,189.00 199.16,189.00 C200.67,189.00 199.46,180.43 196.80,172.34 C194.78,166.19 194.79,164.14 196.83,165.40 C197.36,165.72 200.53,171.65 203.88,178.57 C207.36,185.77 210.39,190.87 210.98,190.51 C211.54,190.17 212.00,186.79 212.00,183.00 C212.00,179.20 212.48,175.82 213.07,175.46 C215.13,174.18 219.52,182.36 225.96,199.51 C229.98,210.21 231.41,212.92 232.50,211.83 C232.79,211.54 233.57,207.63 234.22,203.14 C234.91,198.38 235.85,195.11 236.46,195.31 C238.50,195.97 242.19,207.46 243.37,216.83 C244.09,222.56 245.06,226.52 245.80,226.77 C247.46,227.32 250.70,219.76 251.55,213.38 C252.16,208.72 250.73,193.05 249.35,189.48 C248.23,186.56 252.71,187.99 257.26,192.00 C264.25,198.15 264.82,197.21 259.54,188.21 C254.65,179.85 247.80,172.60 239.55,167.04 C230.82,161.14 229.08,159.29 231.43,158.39 C234.57,157.18 242.88,159.06 249.68,162.51 C257.36,166.40 258.00,166.56 258.00,164.62 C258.00,160.44 240.23,149.87 228.50,147.06 C225.75,146.41 222.47,145.20 221.21,144.39 L 218.93 142.91 L 223.49 137.57 L 228.05 132.22 L 224.28 131.58 C222.20,131.23 217.46,130.68 213.75,130.36 C207.30,129.80 205.66,128.94 208.13,127.42 C210.30,126.08 223.54,124.00 230.00,123.99 C240.86,123.98 247.13,122.93 246.80,121.20 C246.47,119.51 238.40,116.48 231.46,115.44 C228.77,115.04 227.06,114.30 227.28,113.63 C227.69,112.37 234.81,109.78 242.66,108.04 C251.83,106.01 249.19,103.05 238.17,103.01 C229.99,102.98 240.25,96.30 257.29,90.55 C263.73,88.38 269.00,86.24 269.00,85.80 C269.00,85.36 270.01,84.93 271.25,84.83 C272.49,84.74 269.90,84.38 265.50,84.02 C256.22,83.28 248.10,84.24 235.50,87.60 C224.74,90.46 225.00,90.45 224.99,88.25 C224.99,87.29 228.90,82.79 233.69,78.25 C239.57,72.68 241.80,70.00 240.55,70.00 C238.71,70.00 215.34,81.87 207.57,86.76 C198.51,92.45 179.11,106.86 172.58,112.74 C168.76,116.18 165.05,119.00 164.34,119.00 C163.62,119.00 162.76,117.76 162.43,116.25 C159.82,104.46 156.92,96.49 150.54,83.50 C142.68,67.50 135.40,55.37 133.15,54.50 C131.59,53.91 131.66,54.52 134.59,67.71 C135.59,72.23 136.09,76.24 135.70,76.63 C135.31,77.02 131.51,73.75 127.25,69.37 C118.66,60.53 111.23,54.14 103.14,48.64 C94.64,42.87 93.41,44.22 100.26,51.79 C107.91,60.24 112.65,66.41 115.85,72.09 C118.67,77.08 119.84,81.00 118.52,81.00 C118.25,81.00 115.09,79.20 111.50,77.00 C100.59,70.32 100.15,71.81 109.90,82.32 C117.46,90.48 120.59,94.74 119.68,95.65 C119.35,95.98 116.16,95.07 112.57,93.64 C105.05,90.63 98.00,89.24 98.00,90.77 C98.00,92.05 102.81,96.18 111.10,102.00 C118.96,107.53 130.00,117.84 130.00,119.66 C130.00,121.75 128.34,121.28 122.49,117.53 C115.75,113.23 106.94,108.72 106.37,109.29 C106.14,109.53 107.08,111.99 108.47,114.76 C110.94,119.68 111.75,124.46 110.25,125.31 C109.84,125.54 105.26,124.68 100.07,123.39 C84.70,119.57 76.23,118.63 71.15,120.18 C68.76,120.90 66.74,121.95 66.65,122.50 C66.57,123.04 69.99,124.02 74.25,124.67 C82.84,125.98 93.00,130.11 93.00,132.30 C93.00,133.39 90.47,133.84 81.75,134.30 C66.06,135.13 51.05,139.48 48.22,144.03 C47.03,145.92 47.27,146.00 53.99,146.00 C57.85,146.00 61.00,146.36 61.00,146.80 C61.00,147.25 59.38,149.16 57.40,151.05 C49.69,158.43 43.00,170.73 43.00,177.52 C43.00,182.47 44.71,181.85 50.41,174.85 C55.30,168.83 66.25,159.00 68.05,159.00 C69.53,159.00 69.22,160.23 66.00,167.34 C64.35,170.98 63.00,174.42 63.00,174.98 C63.00,177.04 65.65,175.89 71.00,171.50 C78.87,165.05 79.44,165.48 76.00,175.26 C74.01,180.91 73.32,188.01 74.75,187.99 C75.16,187.98 77.68,185.49 80.34,182.46 C85.45,176.63 93.97,171.03 97.75,171.01 C100.68,171.00 100.59,171.49 96.47,177.95 C90.88,186.73 92.03,187.33 100.66,180.14 C108.31,173.78 115.00,170.33 115.00,172.75 C115.00,173.16 113.18,175.52 110.95,178.00 C103.05,186.77 96.00,202.44 96.00,211.19 C96.00,216.22 97.11,215.48 101.18,207.72 C105.53,199.40 117.99,186.89 123.75,185.04 C128.89,183.39 130.00,184.18 127.65,187.79 C123.00,194.94 120.03,204.83 120.01,213.19 C120.01,216.32 120.39,219.12 120.87,219.42 C121.35,219.72 123.46,215.86 125.56,210.85 C131.09,197.67 140.35,188.00 147.45,188.00 L 150.00 188.00 L 150.00 209.31 C150.00,229.44 149.87,230.96 147.60,236.75 C143.01,248.46 140.07,264.78 138.45,287.50 C138.09,292.45 136.91,300.77 135.81,306.00 C134.33,313.08 133.99,317.28 134.49,322.50 C135.44,332.56 137.67,342.43 140.03,347.05 C141.88,350.69 142.01,352.22 141.45,363.78 C140.89,375.10 141.06,377.15 142.91,382.41 C145.39,389.41 145.53,392.31 143.50,394.00 C142.46,394.86 142.00,397.16 142.00,401.47 C142.00,410.81 143.10,411.49 158.36,411.55 C211.61,411.77 278.67,415.27 281.38,417.98 C282.84,419.44 278.65,420.44 254.44,424.42 C237.04,427.29 233.08,428.48 234.89,430.29 C235.76,431.16 245.04,431.68 267.80,432.14 C307.93,432.95 323.67,434.93 339.25,441.14 C347.25,444.33 348.63,446.06 344.80,448.11 C341.40,449.93 332.94,451.97 328.50,452.04 C322.26,452.15 310.50,455.41 310.50,457.04 C310.50,459.57 328.78,461.61 353.77,461.86 C367.07,461.99 368.79,461.78 379.27,458.78 ZM 271.32 367.33 C278.13,365.33 282.72,362.45 284.47,359.07 C288.05,352.14 292.36,329.30 295.53,300.50 C298.50,273.54 299.92,206.58 297.57,204.24 C296.42,203.09 294.23,206.24 293.72,209.76 C292.38,219.13 288.77,238.28 286.88,246.00 C285.75,250.68 284.66,255.18 284.47,256.00 C279.98,275.49 266.58,314.15 259.69,327.50 C253.27,339.95 246.51,351.67 242.98,356.50 C237.76,363.64 236.62,366.02 237.83,367.23 C240.72,370.12 261.60,370.18 271.32,367.33 Z" fill="rgb(78,77,76)"/>
<path d="M 0.00 256.00 L 0.00 0.00 L 256.00 0.00 L 512.00 0.00 L 512.00 256.00 L 512.00 512.00 L 256.00 512.00 L 0.00 512.00 L 0.00 256.00 ZM 379.27 458.78 C390.12,455.67 391.07,455.57 407.47,455.75 C417.07,455.86 428.85,456.64 434.60,457.54 C450.32,460.00 457.57,458.55 449.27,454.59 C440.68,450.50 432.39,448.01 417.37,445.03 C387.41,439.09 373.26,435.23 370.87,432.35 C369.34,430.49 369.87,430.11 376.15,428.47 C385.79,425.97 410.06,423.75 434.67,423.12 C464.69,422.35 467.72,421.07 447.74,417.59 C442.11,416.61 436.15,415.43 434.50,414.96 C430.57,413.86 415.40,411.38 401.06,409.50 C388.22,407.82 369.62,407.62 351.02,408.97 C344.16,409.47 338.34,409.68 338.10,409.44 C337.11,408.44 339.40,407.55 344.78,406.86 C362.58,404.56 389.37,402.00 395.58,402.00 C403.03,402.00 406.48,400.42 403.76,398.26 C395.81,391.91 364.57,384.44 343.66,383.89 C332.88,383.61 331.00,383.13 329.95,380.37 C329.07,378.05 328.78,378.00 316.58,378.00 C309.73,378.00 303.88,377.61 303.58,377.13 C303.29,376.66 303.94,375.46 305.03,374.47 C307.28,372.43 315.65,359.62 318.86,353.29 C321.13,348.83 321.93,336.36 320.08,334.45 C319.27,333.61 316.49,323.00 311.58,302.00 C310.74,298.42 309.76,292.80 309.39,289.50 C309.03,286.20 308.40,283.05 308.01,282.50 C306.83,280.86 305.00,272.38 305.00,268.56 C305.00,266.06 304.55,265.00 303.50,265.00 C301.87,265.00 301.65,266.69 301.96,276.50 C302.31,287.36 298.44,323.94 295.35,339.00 C292.89,351.01 287.36,362.45 280.31,370.10 C277.30,373.36 278.49,374.60 285.57,375.54 C290.27,376.16 290.88,375.97 295.39,372.53 C300.39,368.72 301.89,368.47 300.13,371.75 C299.57,372.81 299.36,374.65 299.67,375.84 C300.20,377.88 299.88,378.00 293.87,378.09 C290.36,378.13 286.15,378.27 284.50,378.38 C282.85,378.50 266.54,378.69 248.25,378.80 C219.45,378.97 215.00,379.20 215.00,380.50 C215.00,381.33 214.32,382.00 213.50,382.00 C212.68,382.00 212.00,382.45 212.00,383.00 C212.00,383.55 211.04,384.00 209.86,384.00 C208.06,384.00 208.33,384.48 211.61,387.09 C217.50,391.77 224.00,398.63 223.98,400.15 C223.97,400.89 222.41,399.66 220.52,397.40 C218.63,395.15 214.60,391.59 211.56,389.50 C208.52,387.41 205.77,384.86 205.45,383.85 C205.13,382.83 204.46,382.00 203.96,382.00 C203.47,382.00 201.53,379.64 199.67,376.75 C197.80,373.86 195.06,370.38 193.58,369.02 C192.10,367.66 189.47,364.06 187.73,361.02 C186.00,357.98 183.55,353.96 182.28,352.09 C180.57,349.57 180.12,347.85 180.56,345.53 C181.19,342.17 179.78,337.63 173.59,323.04 C171.43,317.96 170.01,312.96 170.01,310.54 C170.02,308.32 168.60,302.11 166.85,296.74 C164.09,288.27 163.79,286.35 164.58,282.24 C165.28,278.64 165.05,275.34 163.63,268.50 C162.13,261.27 161.74,254.77 161.66,235.50 C161.55,209.70 162.27,203.56 167.68,184.25 C169.93,176.24 170.56,175.00 172.43,175.00 C174.86,175.00 180.53,180.55 183.96,186.30 C185.20,188.38 186.73,189.92 187.36,189.71 C188.64,189.27 188.75,183.23 187.62,175.00 L 186.87 169.50 L 189.09 172.00 C190.31,173.38 192.82,177.76 194.68,181.75 C196.54,185.74 198.55,189.00 199.16,189.00 C200.67,189.00 199.46,180.43 196.80,172.34 C194.78,166.19 194.79,164.14 196.83,165.40 C197.36,165.72 200.53,171.65 203.88,178.57 C207.36,185.77 210.39,190.87 210.98,190.51 C211.54,190.17 212.00,186.79 212.00,183.00 C212.00,179.20 212.48,175.82 213.07,175.46 C215.13,174.18 219.52,182.36 225.96,199.51 C229.98,210.21 231.41,212.92 232.50,211.83 C232.79,211.54 233.57,207.63 234.22,203.14 C234.91,198.38 235.85,195.11 236.46,195.31 C238.50,195.97 242.19,207.46 243.37,216.83 C244.09,222.56 245.06,226.52 245.80,226.77 C247.46,227.32 250.70,219.76 251.55,213.38 C252.16,208.72 250.73,193.05 249.35,189.48 C248.23,186.56 252.71,187.99 257.26,192.00 C264.25,198.15 264.82,197.21 259.54,188.21 C254.65,179.85 247.80,172.60 239.55,167.04 C230.82,161.14 229.08,159.29 231.43,158.39 C234.57,157.18 242.88,159.06 249.68,162.51 C257.36,166.40 258.00,166.56 258.00,164.62 C258.00,160.44 240.23,149.87 228.50,147.06 C225.75,146.41 222.40,145.15 221.05,144.28 L 218.60 142.69 L 222.48 139.33 C224.62,137.48 228.09,135.46 230.18,134.83 C237.57,132.61 234.39,131.52 217.25,130.39 C207.60,129.75 205.47,129.06 208.13,127.42 C210.30,126.08 223.54,124.00 230.00,123.99 C240.86,123.98 247.13,122.93 246.80,121.20 C246.47,119.51 238.40,116.48 231.46,115.44 C228.77,115.04 227.06,114.30 227.28,113.63 C227.79,112.09 240.23,108.13 247.00,107.35 C260.83,105.75 259.79,103.00 245.36,103.00 C233.30,103.00 232.68,102.28 240.62,97.50 C246.36,94.04 265.26,87.49 272.25,86.53 C275.41,86.10 277.00,85.40 277.00,84.44 C277.00,83.29 275.16,83.00 267.94,83.00 C257.18,83.00 247.75,84.34 235.50,87.60 C224.74,90.46 225.00,90.45 224.99,88.25 C224.99,87.29 228.90,82.79 233.69,78.25 C239.57,72.68 241.80,70.00 240.55,70.00 C238.71,70.00 215.34,81.87 207.57,86.76 C198.51,92.45 179.11,106.86 172.58,112.74 C168.76,116.18 165.05,119.00 164.34,119.00 C163.62,119.00 162.76,117.76 162.43,116.25 C159.82,104.46 156.92,96.49 150.54,83.50 C142.68,67.50 135.40,55.37 133.15,54.50 C131.59,53.91 131.66,54.52 134.59,67.71 C135.59,72.23 136.09,76.24 135.70,76.63 C135.31,77.02 131.51,73.75 127.25,69.37 C118.66,60.53 111.23,54.14 103.14,48.64 C94.64,42.87 93.41,44.22 100.26,51.79 C107.91,60.24 112.65,66.41 115.85,72.09 C118.67,77.08 119.84,81.00 118.52,81.00 C118.25,81.00 115.09,79.20 111.50,77.00 C100.59,70.32 100.15,71.81 109.90,82.32 C117.46,90.48 120.59,94.74 119.68,95.65 C119.35,95.98 116.16,95.07 112.57,93.64 C105.05,90.63 98.00,89.24 98.00,90.77 C98.00,92.05 102.81,96.18 111.10,102.00 C118.96,107.53 130.00,117.84 130.00,119.66 C130.00,121.75 128.34,121.28 122.49,117.53 C115.75,113.23 106.94,108.72 106.37,109.29 C106.14,109.53 107.08,111.99 108.47,114.76 C110.94,119.68 111.75,124.46 110.25,125.31 C109.84,125.54 105.26,124.68 100.07,123.39 C84.70,119.57 76.23,118.63 71.15,120.18 C68.76,120.90 66.74,121.95 66.65,122.50 C66.57,123.04 69.99,124.02 74.25,124.67 C83.14,126.03 93.00,130.12 93.00,132.44 C93.00,133.71 91.58,134.01 85.25,134.03 C75.89,134.08 64.49,136.04 56.89,138.91 C50.59,141.30 42.00,146.66 42.00,148.21 C42.00,149.40 48.99,148.34 50.45,146.92 C51.62,145.79 61.00,145.69 61.00,146.80 C61.00,147.25 59.38,149.16 57.40,151.05 C49.69,158.43 43.00,170.73 43.00,177.52 C43.00,182.47 44.71,181.85 50.41,174.85 C55.30,168.83 66.25,159.00 68.05,159.00 C69.53,159.00 69.22,160.23 66.00,167.34 C64.35,170.98 63.00,174.42 63.00,174.98 C63.00,177.04 65.65,175.89 71.00,171.50 C78.87,165.05 79.44,165.48 76.00,175.26 C74.01,180.91 73.32,188.01 74.75,187.99 C75.16,187.98 77.68,185.49 80.34,182.46 C85.45,176.63 93.97,171.03 97.75,171.01 C100.68,171.00 100.59,171.49 96.47,177.95 C90.88,186.73 92.03,187.33 100.66,180.14 C108.31,173.78 115.00,170.33 115.00,172.75 C115.00,173.16 113.18,175.52 110.95,178.00 C103.05,186.77 96.00,202.44 96.00,211.19 C96.00,216.22 97.11,215.48 101.18,207.72 C105.53,199.40 117.99,186.89 123.75,185.04 C128.89,183.39 130.00,184.18 127.65,187.79 C123.00,194.94 120.03,204.83 120.01,213.19 C120.01,216.32 120.39,219.12 120.87,219.42 C121.35,219.72 123.46,215.86 125.56,210.85 C131.09,197.67 140.35,188.00 147.45,188.00 L 150.00 188.00 L 150.00 209.31 C150.00,229.44 149.87,230.96 147.60,236.75 C143.01,248.46 140.07,264.78 138.45,287.50 C138.09,292.45 136.91,300.77 135.81,306.00 C134.33,313.08 133.99,317.28 134.49,322.50 C135.44,332.56 137.67,342.43 140.03,347.05 C141.88,350.69 142.01,352.22 141.45,363.78 C140.89,375.10 141.06,377.15 142.91,382.41 C145.39,389.41 145.53,392.31 143.50,394.00 C142.46,394.86 142.00,397.16 142.00,401.47 C142.00,410.81 143.10,411.49 158.36,411.55 C211.61,411.77 278.67,415.27 281.38,417.98 C282.84,419.44 278.65,420.44 254.44,424.42 C237.04,427.29 233.08,428.48 234.89,430.29 C235.76,431.16 245.04,431.68 267.80,432.14 C307.93,432.95 323.67,434.93 339.25,441.14 C347.25,444.33 348.63,446.06 344.80,448.11 C341.40,449.93 332.94,451.97 328.50,452.04 C322.26,452.15 310.50,455.41 310.50,457.04 C310.50,459.57 328.78,461.61 353.77,461.86 C367.07,461.99 368.79,461.78 379.27,458.78 ZM 271.32 367.33 C278.13,365.33 282.72,362.45 284.47,359.07 C288.00,352.23 292.28,329.75 295.51,301.00 C299.00,269.94 299.70,199.00 296.51,198.94 C295.96,198.93 295.00,202.20 294.36,206.21 C291.79,222.26 288.85,237.94 286.88,246.00 C285.75,250.68 284.66,255.18 284.47,256.00 C279.98,275.49 266.58,314.15 259.69,327.50 C253.27,339.95 246.51,351.67 242.98,356.50 C237.76,363.64 236.62,366.02 237.83,367.23 C240.72,370.12 261.60,370.18 271.32,367.33 Z" fill="rgb(117,129,138)"/>
<path d="M 0.00 256.00 L 0.00 0.00 L 256.00 0.00 L 512.00 0.00 L 512.00 256.00 L 512.00 512.00 L 256.00 512.00 L 0.00 512.00 L 0.00 256.00 ZM 379.27 458.78 C390.12,455.67 391.07,455.57 407.47,455.75 C417.07,455.86 428.85,456.64 434.60,457.54 C450.32,460.00 457.57,458.55 449.27,454.59 C440.68,450.50 432.39,448.01 417.37,445.03 C387.41,439.09 373.26,435.23 370.87,432.35 C369.34,430.49 369.87,430.11 376.15,428.47 C385.79,425.97 410.06,423.75 434.67,423.12 C464.69,422.35 467.72,421.07 447.74,417.59 C442.11,416.61 436.15,415.42 434.50,414.96 C430.84,413.93 409.97,410.57 397.00,408.94 C390.44,408.11 380.13,407.95 363.66,408.42 C349.14,408.84 340.04,408.74 340.39,408.18 C340.70,407.67 343.11,407.00 345.73,406.69 C369.04,403.91 388.78,402.05 395.13,402.02 C400.33,402.01 403.12,401.57 403.89,400.63 C404.74,399.60 404.71,399.02 403.76,398.26 C395.81,391.91 364.57,384.44 343.66,383.89 C332.88,383.61 331.00,383.13 329.95,380.37 C329.07,378.05 328.78,378.00 316.58,378.00 C309.73,378.00 303.88,377.61 303.58,377.13 C303.29,376.66 303.94,375.46 305.03,374.47 C307.28,372.43 315.65,359.62 318.86,353.29 C321.13,348.83 321.93,336.36 320.08,334.45 C319.27,333.61 316.49,323.00 311.58,302.00 C310.74,298.42 309.76,292.80 309.39,289.50 C309.03,286.20 308.39,283.05 307.98,282.50 C307.02,281.23 305.22,272.19 304.45,264.77 C304.13,261.61 303.44,258.77 302.93,258.46 C301.99,257.88 301.60,265.17 301.96,276.50 C302.31,287.36 298.44,323.94 295.35,339.00 C292.89,351.01 287.36,362.45 280.31,370.10 C277.30,373.36 278.49,374.60 285.57,375.54 C290.27,376.16 290.88,375.97 295.39,372.53 C300.39,368.72 301.89,368.47 300.13,371.75 C299.57,372.81 299.36,374.65 299.67,375.84 C300.20,377.88 299.88,378.00 293.87,378.09 C290.36,378.13 286.15,378.27 284.50,378.38 C282.85,378.50 266.54,378.69 248.25,378.80 C220.47,378.97 215.00,379.23 215.00,380.40 C215.00,381.38 213.45,381.91 209.93,382.15 C203.92,382.56 202.53,381.93 200.39,377.79 C199.51,376.08 196.88,372.62 194.54,370.09 C192.21,367.57 189.01,363.25 187.43,360.50 C185.85,357.75 183.52,353.96 182.26,352.09 C180.57,349.57 180.13,347.85 180.56,345.53 C181.19,342.17 179.78,337.63 173.59,323.04 C171.43,317.96 170.01,312.96 170.01,310.54 C170.02,308.32 168.60,302.11 166.85,296.74 C164.09,288.27 163.79,286.35 164.58,282.24 C165.28,278.64 165.05,275.34 163.63,268.50 C162.13,261.27 161.74,254.77 161.66,235.50 C161.55,209.70 162.27,203.56 167.68,184.25 C169.93,176.24 170.56,175.00 172.43,175.00 C174.86,175.00 180.53,180.55 183.96,186.30 C185.20,188.38 186.73,189.92 187.36,189.71 C188.64,189.27 188.75,183.23 187.62,175.00 L 186.87 169.50 L 189.09 172.00 C190.31,173.38 192.82,177.76 194.68,181.75 C196.54,185.74 198.55,189.00 199.16,189.00 C200.67,189.00 199.46,180.43 196.80,172.34 C194.78,166.19 194.79,164.14 196.83,165.40 C197.36,165.72 200.53,171.65 203.88,178.57 C207.36,185.77 210.39,190.87 210.98,190.51 C211.54,190.17 212.00,186.79 212.00,183.00 C212.00,179.20 212.48,175.82 213.07,175.46 C215.13,174.18 219.52,182.36 225.96,199.51 C229.98,210.21 231.41,212.92 232.50,211.83 C232.79,211.54 233.57,207.63 234.22,203.14 C234.91,198.38 235.85,195.11 236.46,195.31 C238.50,195.97 242.19,207.46 243.37,216.83 C244.09,222.56 245.06,226.52 245.80,226.77 C247.46,227.32 250.70,219.76 251.55,213.38 C252.16,208.72 250.73,193.05 249.35,189.48 C248.23,186.56 252.71,187.99 257.26,192.00 C264.25,198.15 264.82,197.21 259.54,188.21 C254.65,179.85 247.80,172.60 239.55,167.04 C230.82,161.14 229.08,159.29 231.43,158.39 C234.57,157.18 242.88,159.06 249.68,162.51 C257.36,166.40 258.00,166.56 258.00,164.62 C258.00,160.44 240.23,149.87 228.50,147.06 C225.75,146.41 222.40,145.15 221.05,144.28 L 218.60 142.69 L 222.48 139.33 C224.62,137.48 228.09,135.46 230.18,134.83 C237.57,132.61 234.39,131.52 217.25,130.39 C207.60,129.75 205.47,129.06 208.13,127.42 C210.30,126.08 223.54,124.00 230.00,123.99 C240.86,123.98 247.13,122.93 246.80,121.20 C246.47,119.51 238.40,116.48 231.46,115.44 C228.77,115.04 227.06,114.30 227.28,113.63 C227.79,112.09 240.23,108.13 247.00,107.35 C260.83,105.75 259.79,103.00 245.36,103.00 C233.46,103.00 232.76,102.30 240.09,97.75 C246.13,94.01 265.50,87.37 272.87,86.51 C276.19,86.13 279.43,85.18 280.08,84.41 C281.07,83.21 279.56,83.00 270.06,83.00 C257.25,83.00 248.30,84.19 235.50,87.60 C224.74,90.46 225.00,90.45 224.99,88.25 C224.99,87.29 228.90,82.79 233.69,78.25 C239.57,72.68 241.80,70.00 240.55,70.00 C238.71,70.00 215.34,81.87 207.57,86.76 C198.51,92.45 179.11,106.86 172.58,112.74 C168.76,116.18 165.05,119.00 164.34,119.00 C163.62,119.00 162.76,117.76 162.43,116.25 C159.82,104.46 156.92,96.49 150.54,83.50 C142.68,67.50 135.40,55.37 133.15,54.50 C131.59,53.91 131.66,54.52 134.59,67.71 C135.59,72.23 136.09,76.24 135.70,76.63 C135.31,77.02 131.51,73.75 127.25,69.37 C118.66,60.53 111.23,54.14 103.14,48.64 C94.64,42.87 93.41,44.22 100.26,51.79 C107.91,60.24 112.65,66.41 115.85,72.09 C118.67,77.08 119.84,81.00 118.52,81.00 C118.25,81.00 115.09,79.20 111.50,77.00 C100.59,70.32 100.15,71.81 109.90,82.32 C117.46,90.48 120.59,94.74 119.68,95.65 C119.35,95.98 116.16,95.07 112.57,93.64 C105.05,90.63 98.00,89.24 98.00,90.77 C98.00,92.05 102.81,96.18 111.10,102.00 C118.96,107.53 130.00,117.84 130.00,119.66 C130.00,121.75 128.34,121.28 122.49,117.53 C115.75,113.23 106.94,108.72 106.37,109.29 C106.14,109.53 107.08,111.99 108.47,114.76 C110.94,119.68 111.75,124.46 110.25,125.31 C109.84,125.54 105.26,124.68 100.07,123.39 C84.70,119.57 76.23,118.63 71.15,120.18 C68.76,120.90 66.74,121.95 66.65,122.50 C66.57,123.04 69.99,124.02 74.25,124.67 C83.14,126.03 93.00,130.12 93.00,132.44 C93.00,133.71 91.58,134.01 85.25,134.03 C75.89,134.08 64.49,136.04 56.89,138.91 C50.59,141.30 42.00,146.66 42.00,148.21 C42.00,149.40 48.99,148.34 50.45,146.92 C51.62,145.79 61.00,145.69 61.00,146.80 C61.00,147.25 59.38,149.16 57.40,151.05 C49.69,158.43 43.00,170.73 43.00,177.52 C43.00,182.47 44.71,181.85 50.41,174.85 C55.30,168.83 66.25,159.00 68.05,159.00 C69.53,159.00 69.22,160.23 66.00,167.34 C64.35,170.98 63.00,174.42 63.00,174.98 C63.00,177.04 65.65,175.89 71.00,171.50 C78.87,165.05 79.44,165.48 76.00,175.26 C74.01,180.91 73.32,188.01 74.75,187.99 C75.16,187.98 77.68,185.49 80.34,182.46 C85.45,176.63 93.97,171.03 97.75,171.01 C100.68,171.00 100.59,171.49 96.47,177.95 C90.88,186.73 92.03,187.33 100.66,180.14 C108.31,173.78 115.00,170.33 115.00,172.75 C115.00,173.16 113.18,175.52 110.95,178.00 C103.05,186.77 96.00,202.44 96.00,211.19 C96.00,216.22 97.11,215.48 101.18,207.72 C105.53,199.40 117.99,186.89 123.75,185.04 C128.89,183.39 130.00,184.18 127.65,187.79 C123.00,194.94 120.03,204.83 120.01,213.19 C120.01,216.32 120.39,219.12 120.87,219.42 C121.35,219.72 123.46,215.86 125.56,210.85 C131.09,197.67 140.35,188.00 147.45,188.00 L 150.00 188.00 L 150.00 209.31 C150.00,229.44 149.87,230.96 147.60,236.75 C143.01,248.46 140.07,264.78 138.45,287.50 C138.09,292.45 136.91,300.77 135.81,306.00 C134.33,313.08 133.99,317.28 134.49,322.50 C135.44,332.56 137.67,342.43 140.03,347.05 C141.88,350.69 142.01,352.22 141.45,363.78 C140.89,375.10 141.06,377.15 142.91,382.41 C145.39,389.41 145.53,392.31 143.50,394.00 C142.46,394.86 142.00,397.16 142.00,401.47 C142.00,410.81 143.10,411.49 158.36,411.55 C211.61,411.77 278.67,415.27 281.38,417.98 C282.84,419.44 278.65,420.44 254.44,424.42 C237.04,427.29 233.08,428.48 234.89,430.29 C235.76,431.16 245.04,431.68 267.80,432.14 C307.93,432.95 323.67,434.93 339.25,441.14 C347.25,444.33 348.63,446.06 344.80,448.11 C341.40,449.93 332.94,451.97 328.50,452.04 C322.26,452.15 310.50,455.41 310.50,457.04 C310.50,459.57 328.78,461.61 353.77,461.86 C367.07,461.99 368.79,461.78 379.27,458.78 ZM 271.32 367.33 C278.13,365.33 282.72,362.45 284.47,359.07 C288.00,352.23 292.28,329.75 295.51,301.00 C299.00,269.94 299.70,199.00 296.51,198.94 C295.96,198.93 295.00,202.20 294.36,206.21 C291.79,222.26 288.85,237.94 286.88,246.00 C285.75,250.68 284.66,255.18 284.47,256.00 C279.98,275.49 266.58,314.15 259.69,327.50 C253.27,339.95 246.51,351.67 242.98,356.50 C237.76,363.64 236.62,366.02 237.83,367.23 C240.72,370.12 261.60,370.18 271.32,367.33 Z" fill="rgb(152,158,162)"/>
<path d="M 0.00 256.00 L 0.00 0.00 L 256.00 0.00 L 512.00 0.00 L 512.00 256.00 L 512.00 512.00 L 256.00 512.00 L 0.00 512.00 L 0.00 256.00 ZM 379.27 458.78 C390.12,455.67 391.07,455.57 407.47,455.75 C417.07,455.86 428.85,456.64 434.60,457.54 C450.32,460.00 457.57,458.55 449.27,454.59 C440.68,450.50 432.39,448.01 417.37,445.03 C387.41,439.09 373.26,435.23 370.87,432.35 C369.34,430.49 369.87,430.11 376.15,428.47 C385.79,425.97 410.06,423.75 434.67,423.12 C464.69,422.35 467.72,421.07 447.74,417.59 C442.11,416.61 436.15,415.42 434.50,414.96 C430.61,413.86 409.25,410.46 396.59,408.92 C390.58,408.19 379.54,407.89 368.59,408.17 C358.64,408.42 348.92,408.36 347.00,408.04 C343.89,407.52 344.33,407.31 351.00,406.21 C362.06,404.38 387.19,402.00 395.51,402.00 C403.03,402.00 406.49,400.43 403.76,398.26 C395.81,391.91 364.57,384.44 343.66,383.89 C332.88,383.61 331.00,383.13 329.95,380.37 C329.07,378.05 328.78,378.00 316.58,378.00 C309.73,378.00 303.88,377.61 303.58,377.13 C303.29,376.66 303.94,375.46 305.03,374.47 C307.28,372.43 315.65,359.62 318.86,353.29 C321.13,348.83 321.93,336.36 320.08,334.45 C319.27,333.61 316.49,323.00 311.58,302.00 C310.74,298.42 309.76,292.80 309.39,289.50 C309.03,286.20 308.39,283.05 307.98,282.50 C307.02,281.23 305.22,272.19 304.45,264.77 C304.13,261.61 303.44,258.77 302.93,258.46 C301.99,257.88 301.60,265.17 301.96,276.50 C302.31,287.36 298.44,323.94 295.35,339.00 C292.89,351.01 287.36,362.45 280.31,370.10 C277.30,373.36 278.49,374.60 285.57,375.54 C290.27,376.16 290.88,375.97 295.39,372.53 C300.39,368.72 301.89,368.47 300.13,371.75 C299.57,372.81 299.36,374.65 299.67,375.84 C300.20,377.88 299.88,378.00 293.87,378.09 C290.36,378.13 286.15,378.27 284.50,378.38 C282.85,378.50 266.54,378.69 248.25,378.80 C220.47,378.97 215.00,379.23 215.00,380.40 C215.00,381.38 213.45,381.91 209.93,382.15 C203.92,382.56 202.53,381.93 200.39,377.79 C199.51,376.08 196.88,372.62 194.54,370.09 C192.21,367.57 189.01,363.25 187.43,360.50 C185.85,357.75 183.52,353.96 182.26,352.09 C180.57,349.57 180.13,347.85 180.56,345.53 C181.19,342.17 179.78,337.63 173.59,323.04 C171.43,317.96 170.01,312.96 170.01,310.54 C170.02,308.32 168.60,302.11 166.85,296.74 C164.09,288.27 163.79,286.35 164.58,282.24 C165.28,278.64 165.05,275.34 163.63,268.50 C162.13,261.27 161.74,254.77 161.66,235.50 C161.55,209.70 162.27,203.56 167.68,184.25 C169.93,176.24 170.56,175.00 172.43,175.00 C174.86,175.00 180.53,180.55 183.96,186.30 C185.20,188.38 186.73,189.92 187.36,189.71 C188.64,189.27 188.75,183.23 187.62,175.00 L 186.87 169.50 L 189.09 172.00 C190.31,173.38 192.82,177.76 194.68,181.75 C196.54,185.74 198.55,189.00 199.16,189.00 C200.67,189.00 199.46,180.43 196.80,172.34 C194.78,166.19 194.79,164.14 196.83,165.40 C197.36,165.72 200.53,171.65 203.88,178.57 C207.36,185.77 210.39,190.87 210.98,190.51 C211.54,190.17 212.00,186.79 212.00,183.00 C212.00,179.20 212.48,175.82 213.07,175.46 C215.13,174.18 219.52,182.36 225.96,199.51 C229.98,210.21 231.41,212.92 232.50,211.83 C232.79,211.54 233.57,207.63 234.22,203.14 C234.91,198.38 235.85,195.11 236.46,195.31 C238.50,195.97 242.19,207.46 243.37,216.83 C244.09,222.56 245.06,226.52 245.80,226.77 C247.46,227.32 250.70,219.76 251.55,213.38 C252.16,208.72 250.73,193.05 249.35,189.48 C248.23,186.56 252.71,187.99 257.26,192.00 C264.25,198.15 264.82,197.21 259.54,188.21 C254.65,179.85 247.80,172.60 239.55,167.04 C230.82,161.14 229.08,159.29 231.43,158.39 C234.57,157.18 242.88,159.06 249.68,162.51 C257.36,166.40 258.00,166.56 258.00,164.62 C258.00,160.44 240.23,149.87 228.50,147.06 C225.75,146.41 222.40,145.15 221.05,144.28 L 218.60 142.69 L 222.48 139.33 C224.62,137.48 228.09,135.46 230.18,134.83 C237.57,132.61 234.39,131.52 217.25,130.39 C207.60,129.75 205.47,129.06 208.13,127.42 C210.30,126.08 223.54,124.00 230.00,123.99 C240.86,123.98 247.13,122.93 246.80,121.20 C246.47,119.51 238.40,116.48 231.46,115.44 C228.77,115.04 227.06,114.30 227.28,113.63 C227.79,112.09 240.23,108.13 247.00,107.35 C260.83,105.75 259.79,103.00 245.36,103.00 C233.46,103.00 232.76,102.30 240.09,97.75 C246.13,94.01 265.50,87.37 272.87,86.51 C276.19,86.13 279.43,85.18 280.08,84.41 C281.07,83.21 279.56,83.00 270.06,83.00 C257.25,83.00 248.30,84.19 235.50,87.60 C224.74,90.46 225.00,90.45 224.99,88.25 C224.99,87.29 228.90,82.79 233.69,78.25 C239.57,72.68 241.80,70.00 240.55,70.00 C238.71,70.00 215.34,81.87 207.57,86.76 C198.51,92.45 179.11,106.86 172.58,112.74 C168.76,116.18 165.05,119.00 164.34,119.00 C163.62,119.00 162.76,117.76 162.43,116.25 C159.82,104.46 156.92,96.49 150.54,83.50 C142.68,67.50 135.40,55.37 133.15,54.50 C131.59,53.91 131.66,54.52 134.59,67.71 C135.59,72.23 136.09,76.24 135.70,76.63 C135.31,77.02 131.51,73.75 127.25,69.37 C118.66,60.53 111.23,54.14 103.14,48.64 C94.64,42.87 93.41,44.22 100.26,51.79 C107.91,60.24 112.65,66.41 115.85,72.09 C118.67,77.08 119.84,81.00 118.52,81.00 C118.25,81.00 115.09,79.20 111.50,77.00 C100.59,70.32 100.15,71.81 109.90,82.32 C117.46,90.48 120.59,94.74 119.68,95.65 C119.35,95.98 116.16,95.07 112.57,93.64 C105.05,90.63 98.00,89.24 98.00,90.77 C98.00,92.05 102.81,96.18 111.10,102.00 C118.96,107.53 130.00,117.84 130.00,119.66 C130.00,121.75 128.34,121.28 122.49,117.53 C115.75,113.23 106.94,108.72 106.37,109.29 C106.14,109.53 107.08,111.99 108.47,114.76 C110.94,119.68 111.75,124.46 110.25,125.31 C109.84,125.54 105.26,124.68 100.07,123.39 C84.70,119.57 76.23,118.63 71.15,120.18 C68.76,120.90 66.74,121.95 66.65,122.50 C66.57,123.04 69.99,124.02 74.25,124.67 C83.14,126.03 93.00,130.12 93.00,132.44 C93.00,133.71 91.58,134.01 85.25,134.03 C75.89,134.08 64.49,136.04 56.89,138.91 C50.59,141.30 42.00,146.66 42.00,148.21 C42.00,149.40 48.99,148.34 50.45,146.92 C51.62,145.79 61.00,145.69 61.00,146.80 C61.00,147.25 59.38,149.16 57.40,151.05 C49.69,158.43 43.00,170.73 43.00,177.52 C43.00,182.47 44.71,181.85 50.41,174.85 C55.30,168.83 66.25,159.00 68.05,159.00 C69.53,159.00 69.22,160.23 66.00,167.34 C64.35,170.98 63.00,174.42 63.00,174.98 C63.00,177.04 65.65,175.89 71.00,171.50 C78.87,165.05 79.44,165.48 76.00,175.26 C74.01,180.91 73.32,188.01 74.75,187.99 C75.16,187.98 77.68,185.49 80.34,182.46 C85.45,176.63 93.97,171.03 97.75,171.01 C100.68,171.00 100.59,171.49 96.47,177.95 C90.88,186.73 92.03,187.33 100.66,180.14 C108.31,173.78 115.00,170.33 115.00,172.75 C115.00,173.16 113.18,175.52 110.95,178.00 C103.05,186.77 96.00,202.44 96.00,211.19 C96.00,216.22 97.11,215.48 101.18,207.72 C105.53,199.40 117.99,186.89 123.75,185.04 C128.89,183.39 130.00,184.18 127.65,187.79 C123.00,194.94 120.03,204.83 120.01,213.19 C120.01,216.32 120.39,219.12 120.87,219.42 C121.35,219.72 123.46,215.86 125.56,210.85 C131.09,197.67 140.35,188.00 147.45,188.00 L 150.00 188.00 L 150.00 209.31 C150.00,229.44 149.87,230.96 147.60,236.75 C143.01,248.46 140.07,264.78 138.45,287.50 C138.09,292.45 136.91,300.77 135.81,306.00 C134.33,313.08 133.99,317.28 134.49,322.50 C135.44,332.56 137.67,342.43 140.03,347.05 C141.88,350.69 142.01,352.22 141.45,363.78 C140.89,375.10 141.06,377.15 142.91,382.41 C145.39,389.41 145.53,392.31 143.50,394.00 C142.46,394.86 142.00,397.16 142.00,401.47 C142.00,410.81 143.10,411.49 158.36,411.55 C211.61,411.77 278.67,415.27 281.38,417.98 C282.84,419.44 278.65,420.44 254.44,424.42 C237.04,427.29 233.08,428.48 234.89,430.29 C235.76,431.16 245.04,431.68 267.80,432.14 C307.93,432.95 323.67,434.93 339.25,441.14 C347.25,444.33 348.63,446.06 344.80,448.11 C341.40,449.93 332.94,451.97 328.50,452.04 C322.26,452.15 310.50,455.41 310.50,457.04 C310.50,459.57 328.78,461.61 353.77,461.86 C367.07,461.99 368.79,461.78 379.27,458.78 ZM 271.32 367.33 C278.13,365.33 282.72,362.45 284.47,359.07 C288.00,352.23 292.28,329.75 295.51,301.00 C299.00,269.94 299.70,199.00 296.51,198.94 C295.96,198.93 295.00,202.20 294.36,206.21 C291.79,222.26 288.85,237.94 286.88,246.00 C285.75,250.68 284.66,255.18 284.47,256.00 C279.98,275.49 266.58,314.15 259.69,327.50 C253.27,339.95 246.51,351.67 242.98,356.50 C237.76,363.64 236.62,366.02 237.83,367.23 C240.72,370.12 261.60,370.18 271.32,367.33 Z" fill="rgb(156,100,40)"/>
<path d="M 0.00 256.00 L 0.00 0.00 L 256.00 0.00 L 512.00 0.00 L 512.00 256.00 L 512.00 512.00 L 256.00 512.00 L 0.00 512.00 L 0.00 256.00 ZM 379.27 458.78 C390.12,455.67 391.07,455.57 407.47,455.75 C417.07,455.86 428.85,456.64 434.60,457.54 C450.32,460.00 457.57,458.55 449.27,454.59 C440.68,450.50 432.39,448.01 417.37,445.03 C387.41,439.09 373.26,435.23 370.87,432.35 C369.34,430.49 369.87,430.11 376.15,428.47 C385.79,425.97 410.06,423.75 434.67,423.12 C464.69,422.35 467.72,421.07 447.74,417.59 C442.11,416.61 436.15,415.42 434.50,414.96 C430.61,413.86 409.25,410.46 396.59,408.92 C390.58,408.19 379.54,407.89 368.59,408.17 C358.64,408.42 348.92,408.36 347.00,408.04 C343.89,407.52 344.33,407.31 351.00,406.21 C362.06,404.38 387.19,402.00 395.51,402.00 C403.03,402.00 406.49,400.43 403.76,398.26 C395.81,391.91 364.57,384.44 343.66,383.89 C332.88,383.61 331.00,383.13 329.95,380.37 C329.07,378.05 328.78,378.00 316.58,378.00 C309.73,378.00 303.88,377.61 303.58,377.13 C303.29,376.66 303.94,375.46 305.03,374.47 C307.28,372.43 315.65,359.62 318.86,353.29 C321.13,348.83 321.93,336.36 320.08,334.45 C319.27,333.61 316.49,323.00 311.58,302.00 C310.74,298.42 309.76,292.80 309.39,289.50 C309.03,286.20 308.39,283.05 307.98,282.50 C307.02,281.23 305.22,272.19 304.45,264.77 C304.13,261.61 303.44,258.77 302.93,258.46 C301.99,257.88 301.60,265.17 301.96,276.50 C302.31,287.36 298.44,323.94 295.35,339.00 C294.51,343.12 292.69,349.17 291.31,352.44 C288.70,358.66 282.38,368.61 279.57,370.94 C278.07,372.19 278.12,372.50 280.14,374.65 L 282.35 377.00 L 250.17 377.00 C229.39,377.00 218.00,377.35 218.00,378.00 C218.00,378.55 217.32,379.00 216.50,379.00 C215.68,379.00 215.00,379.63 215.00,380.40 C215.00,381.38 213.45,381.91 209.93,382.15 C203.92,382.56 202.53,381.93 200.39,377.79 C199.51,376.08 196.88,372.62 194.54,370.09 C192.21,367.57 189.01,363.25 187.43,360.50 C185.85,357.75 183.52,353.96 182.26,352.09 C180.57,349.57 180.13,347.85 180.56,345.53 C181.19,342.17 179.78,337.63 173.59,323.04 C171.43,317.96 170.01,312.96 170.01,310.54 C170.02,308.32 168.60,302.11 166.85,296.74 C164.09,288.27 163.79,286.35 164.58,282.24 C165.28,278.64 165.05,275.34 163.63,268.50 C162.13,261.27 161.74,254.77 161.66,235.50 C161.55,209.70 162.27,203.56 167.68,184.25 C169.93,176.24 170.56,175.00 172.43,175.00 C174.86,175.00 180.53,180.55 183.96,186.30 C185.20,188.38 186.73,189.92 187.36,189.71 C188.64,189.27 188.75,183.23 187.62,175.00 L 186.87 169.50 L 189.09 172.00 C190.31,173.38 192.82,177.76 194.68,181.75 C196.54,185.74 198.55,189.00 199.16,189.00 C200.67,189.00 199.46,180.43 196.80,172.34 C194.78,166.19 194.79,164.14 196.83,165.40 C197.36,165.72 200.53,171.65 203.88,178.57 C207.36,185.77 210.39,190.87 210.98,190.51 C211.54,190.17 212.00,186.79 212.00,183.00 C212.00,179.20 212.48,175.82 213.07,175.46 C215.13,174.18 219.52,182.36 225.96,199.51 C229.98,210.21 231.41,212.92 232.50,211.83 C232.79,211.54 233.57,207.63 234.22,203.14 C234.91,198.38 235.85,195.11 236.46,195.31 C238.50,195.97 242.19,207.46 243.37,216.83 C244.09,222.56 245.06,226.52 245.80,226.77 C247.46,227.32 250.70,219.76 251.55,213.38 C252.16,208.72 250.73,193.05 249.35,189.48 C248.23,186.56 252.71,187.99 257.26,192.00 C264.25,198.15 264.82,197.21 259.54,188.21 C254.65,179.85 247.80,172.60 239.55,167.04 C230.82,161.14 229.08,159.29 231.43,158.39 C234.57,157.18 242.88,159.06 249.68,162.51 C257.36,166.40 258.00,166.56 258.00,164.62 C258.00,160.44 240.23,149.87 228.50,147.06 C225.75,146.41 222.40,145.15 221.05,144.28 L 218.60 142.69 L 222.48 139.33 C224.62,137.48 228.09,135.46 230.18,134.83 C237.57,132.61 234.39,131.52 217.25,130.39 C207.60,129.75 205.47,129.06 208.13,127.42 C210.30,126.08 223.54,124.00 230.00,123.99 C240.86,123.98 247.13,122.93 246.80,121.20 C246.47,119.51 238.40,116.48 231.46,115.44 C228.77,115.04 227.06,114.30 227.28,113.63 C227.79,112.09 240.23,108.13 247.00,107.35 C260.83,105.75 259.79,103.00 245.36,103.00 C233.46,103.00 232.76,102.30 240.09,97.75 C246.13,94.01 265.50,87.37 272.87,86.51 C276.19,86.13 279.43,85.18 280.08,84.41 C281.07,83.21 279.56,83.00 270.06,83.00 C257.25,83.00 248.30,84.19 235.50,87.60 C224.74,90.46 225.00,90.45 224.99,88.25 C224.99,87.29 228.90,82.79 233.69,78.25 C239.57,72.68 241.80,70.00 240.55,70.00 C238.71,70.00 215.34,81.87 207.57,86.76 C198.51,92.45 179.11,106.86 172.58,112.74 C168.76,116.18 165.05,119.00 164.34,119.00 C163.62,119.00 162.76,117.76 162.43,116.25 C159.82,104.46 156.92,96.49 150.54,83.50 C142.68,67.50 135.40,55.37 133.15,54.50 C131.59,53.91 131.66,54.52 134.59,67.71 C135.59,72.23 136.09,76.24 135.70,76.63 C135.31,77.02 131.51,73.75 127.25,69.37 C118.66,60.53 111.23,54.14 103.14,48.64 C94.64,42.87 93.41,44.22 100.26,51.79 C107.91,60.24 112.65,66.41 115.85,72.09 C118.67,77.08 119.84,81.00 118.52,81.00 C118.25,81.00 115.09,79.20 111.50,77.00 C100.59,70.32 100.15,71.81 109.90,82.32 C117.46,90.48 120.59,94.74 119.68,95.65 C119.35,95.98 116.16,95.07 112.57,93.64 C105.05,90.63 98.00,89.24 98.00,90.77 C98.00,92.05 102.81,96.18 111.10,102.00 C118.96,107.53 130.00,117.84 130.00,119.66 C130.00,121.75 128.34,121.28 122.49,117.53 C115.75,113.23 106.94,108.72 106.37,109.29 C106.14,109.53 107.08,111.99 108.47,114.76 C110.94,119.68 111.75,124.46 110.25,125.31 C109.84,125.54 105.26,124.68 100.07,123.39 C84.70,119.57 76.23,118.63 71.15,120.18 C68.76,120.90 66.74,121.95 66.65,122.50 C66.57,123.04 69.99,124.02 74.25,124.67 C83.14,126.03 93.00,130.12 93.00,132.44 C93.00,133.71 91.58,134.01 85.25,134.03 C75.89,134.08 64.49,136.04 56.89,138.91 C50.59,141.30 42.00,146.66 42.00,148.21 C42.00,149.40 48.99,148.34 50.45,146.92 C51.62,145.79 61.00,145.69 61.00,146.80 C61.00,147.25 59.38,149.16 57.40,151.05 C49.69,158.43 43.00,170.73 43.00,177.52 C43.00,182.47 44.71,181.85 50.41,174.85 C55.30,168.83 66.25,159.00 68.05,159.00 C69.53,159.00 69.22,160.23 66.00,167.34 C64.35,170.98 63.00,174.42 63.00,174.98 C63.00,177.04 65.65,175.89 71.00,171.50 C78.87,165.05 79.44,165.48 76.00,175.26 C74.01,180.91 73.32,188.01 74.75,187.99 C75.16,187.98 77.68,185.49 80.34,182.46 C85.45,176.63 93.97,171.03 97.75,171.01 C100.68,171.00 100.59,171.49 96.47,177.95 C90.88,186.73 92.03,187.33 100.66,180.14 C108.31,173.78 115.00,170.33 115.00,172.75 C115.00,173.16 113.18,175.52 110.95,178.00 C103.05,186.77 96.00,202.44 96.00,211.19 C96.00,216.22 97.11,215.48 101.18,207.72 C105.53,199.40 117.99,186.89 123.75,185.04 C128.89,183.39 130.00,184.18 127.65,187.79 C123.00,194.94 120.03,204.83 120.01,213.19 C120.01,216.32 120.39,219.12 120.87,219.42 C121.35,219.72 123.46,215.86 125.56,210.85 C131.09,197.67 140.35,188.00 147.45,188.00 L 150.00 188.00 L 150.00 209.31 C150.00,229.44 149.87,230.96 147.60,236.75 C143.01,248.46 140.07,264.78 138.45,287.50 C138.09,292.45 136.91,300.77 135.81,306.00 C134.33,313.08 133.99,317.28 134.49,322.50 C135.44,332.56 137.67,342.43 140.03,347.05 C141.88,350.69 142.01,352.22 141.45,363.78 C140.89,375.10 141.06,377.15 142.91,382.41 C145.39,389.41 145.53,392.31 143.50,394.00 C142.46,394.86 142.00,397.16 142.00,401.47 C142.00,410.81 143.10,411.49 158.36,411.55 C211.61,411.77 278.67,415.27 281.38,417.98 C282.84,419.44 278.65,420.44 254.44,424.42 C237.04,427.29 233.08,428.48 234.89,430.29 C235.76,431.16 245.04,431.68 267.80,432.14 C307.93,432.95 323.67,434.93 339.25,441.14 C347.25,444.33 348.63,446.06 344.80,448.11 C341.40,449.93 332.94,451.97 328.50,452.04 C322.26,452.15 310.50,455.41 310.50,457.04 C310.50,459.57 328.78,461.61 353.77,461.86 C367.07,461.99 368.79,461.78 379.27,458.78 ZM 271.32 367.33 C278.13,365.33 282.72,362.45 284.47,359.07 C288.00,352.23 292.28,329.75 295.51,301.00 C299.00,269.94 299.70,199.00 296.51,198.94 C295.96,198.93 295.00,202.20 294.36,206.21 C291.79,222.26 288.85,237.94 286.88,246.00 C285.75,250.68 284.66,255.18 284.47,256.00 C279.98,275.49 266.58,314.15 259.69,327.50 C253.27,339.95 246.51,351.67 242.98,356.50 C237.76,363.64 236.62,366.02 237.83,367.23 C240.72,370.12 261.60,370.18 271.32,367.33 ZM 293.00 376.04 C293.00,375.50 293.96,374.56 295.13,373.93 C296.77,373.05 297.44,373.09 298.06,374.10 C298.50,374.82 298.65,375.76 298.38,376.20 C297.67,377.34 293.00,377.19 293.00,376.04 Z" fill="rgb(239,196,146)"/>
<path d="M 0.00 256.00 L 0.00 0.00 L 256.00 0.00 L 512.00 0.00 L 512.00 256.00 L 512.00 512.00 L 256.00 512.00 L 0.00 512.00 L 0.00 256.00 ZM 379.27 458.78 C390.12,455.67 391.07,455.57 407.47,455.75 C417.07,455.86 428.85,456.64 434.60,457.54 C450.32,460.00 457.57,458.55 449.27,454.59 C440.68,450.50 432.39,448.01 417.37,445.03 C387.41,439.09 373.26,435.23 370.87,432.35 C369.34,430.49 369.87,430.11 376.15,428.47 C385.79,425.97 410.06,423.75 434.67,423.12 C464.69,422.35 467.72,421.07 447.74,417.59 C442.11,416.61 436.15,415.42 434.50,414.96 C430.61,413.86 409.25,410.46 396.59,408.92 C390.58,408.19 379.54,407.89 368.59,408.17 C358.64,408.42 348.92,408.36 347.00,408.04 C343.89,407.52 344.33,407.31 351.00,406.21 C362.06,404.38 387.19,402.00 395.51,402.00 C403.03,402.00 406.49,400.43 403.76,398.26 C395.81,391.91 364.57,384.44 343.66,383.89 C332.88,383.61 331.00,383.13 329.95,380.37 C329.08,378.07 328.71,378.00 317.91,378.00 L 306.78 378.00 L 307.44 374.45 C307.81,372.49 310.05,367.88 312.42,364.20 C319.90,352.59 321.00,349.77 321.00,342.24 C321.00,338.48 320.59,334.97 320.08,334.45 C319.27,333.61 316.49,323.00 311.58,302.00 C310.74,298.42 309.76,292.80 309.39,289.50 C309.03,286.20 308.39,283.05 307.98,282.50 C307.02,281.23 305.22,272.19 304.45,264.77 C304.13,261.61 303.44,258.77 302.93,258.46 C301.99,257.88 301.60,265.17 301.96,276.50 C302.31,287.36 298.44,323.94 295.35,339.00 C294.51,343.12 292.69,349.17 291.31,352.44 C288.70,358.66 282.38,368.61 279.57,370.94 C278.07,372.19 278.12,372.50 280.14,374.65 L 282.35 377.00 L 250.26 377.00 C226.94,377.00 218.06,377.31 217.78,378.15 C217.33,379.50 206.97,380.46 205.49,379.29 C204.94,378.86 202.51,375.80 200.08,372.50 C197.66,369.20 194.18,364.96 192.34,363.08 C190.50,361.20 189.00,359.32 189.00,358.89 C189.00,358.46 187.19,355.23 184.97,351.69 C181.53,346.20 181.09,344.90 181.94,342.67 C183.22,339.29 180.23,329.63 174.77,319.53 C174.19,318.45 173.39,313.72 172.99,309.03 C172.60,304.34 171.46,297.40 170.46,293.62 L 168.65 286.73 L 171.06 282.12 C172.38,279.58 176.92,274.07 181.13,269.87 C192.56,258.49 201.31,252.92 213.67,249.17 C235.16,242.64 256.17,244.20 276.17,253.81 C285.03,258.07 284.69,255.91 279.36,274.50 C270.25,306.23 255.78,338.43 241.46,358.86 C239.01,362.36 237.00,365.63 237.00,366.14 C237.00,368.09 242.96,369.23 253.50,369.30 C269.42,369.42 281.11,365.55 284.47,359.07 C288.00,352.23 292.28,329.75 295.51,301.00 C299.01,269.87 299.70,198.86 296.50,199.00 C295.95,199.03 294.98,202.30 294.35,206.27 C290.22,232.11 285.47,254.59 283.94,255.53 C283.50,255.81 280.51,254.72 277.32,253.10 C257.32,243.02 236.28,241.48 212.25,248.32 C198.48,252.25 181.36,265.08 172.11,278.42 C167.42,285.16 167.24,286.79 170.00,296.76 C172.19,304.67 172.55,309.00 171.00,309.00 C170.45,309.00 170.01,308.44 170.01,307.75 C170.02,307.06 168.60,302.11 166.85,296.74 C164.09,288.27 163.79,286.35 164.58,282.24 C165.28,278.64 165.05,275.34 163.63,268.50 C162.13,261.27 161.74,254.77 161.66,235.50 C161.55,209.70 162.27,203.56 167.68,184.25 C169.93,176.24 170.56,175.00 172.43,175.00 C174.86,175.00 180.53,180.55 183.96,186.30 C185.20,188.38 186.73,189.92 187.36,189.71 C188.64,189.27 188.75,183.23 187.62,175.00 L 186.87 169.50 L 189.09 172.00 C190.31,173.38 192.82,177.76 194.68,181.75 C196.54,185.74 198.55,189.00 199.16,189.00 C200.67,189.00 199.46,180.43 196.80,172.34 C194.78,166.19 194.79,164.14 196.83,165.40 C197.36,165.72 200.53,171.65 203.88,178.57 C207.36,185.77 210.39,190.87 210.98,190.51 C211.54,190.17 212.00,186.79 212.00,183.00 C212.00,179.20 212.48,175.82 213.07,175.46 C215.13,174.18 219.52,182.36 225.96,199.51 C229.98,210.21 231.41,212.92 232.50,211.83 C232.79,211.54 233.57,207.63 234.22,203.14 C234.91,198.38 235.85,195.11 236.46,195.31 C238.50,195.97 242.19,207.46 243.37,216.83 C244.09,222.56 245.06,226.52 245.80,226.77 C247.46,227.32 250.70,219.76 251.55,213.38 C252.16,208.72 250.73,193.05 249.35,189.48 C248.23,186.56 252.71,187.99 257.26,192.00 C264.25,198.15 264.82,197.21 259.54,188.21 C254.65,179.85 247.80,172.60 239.55,167.04 C230.82,161.14 229.08,159.29 231.43,158.39 C234.57,157.18 242.88,159.06 249.68,162.51 C257.36,166.40 258.00,166.56 258.00,164.62 C258.00,160.44 240.23,149.87 228.50,147.06 C225.75,146.41 222.40,145.15 221.05,144.28 L 218.60 142.69 L 222.48 139.33 C224.62,137.48 228.09,135.46 230.18,134.83 C237.57,132.61 234.39,131.52 217.25,130.39 C207.60,129.75 205.47,129.06 208.13,127.42 C210.30,126.08 223.54,124.00 230.00,123.99 C240.86,123.98 247.13,122.93 246.80,121.20 C246.47,119.51 238.40,116.48 231.46,115.44 C228.77,115.04 227.06,114.30 227.28,113.63 C227.79,112.09 240.23,108.13 247.00,107.35 C260.83,105.75 259.79,103.00 245.36,103.00 C233.46,103.00 232.76,102.30 240.09,97.75 C246.13,94.01 265.50,87.37 272.87,86.51 C276.19,86.13 279.43,85.18 280.08,84.41 C281.07,83.21 279.56,83.00 270.06,83.00 C257.25,83.00 248.30,84.19 235.50,87.60 C224.74,90.46 225.00,90.45 224.99,88.25 C224.99,87.29 228.90,82.79 233.69,78.25 C239.57,72.68 241.80,70.00 240.55,70.00 C238.71,70.00 215.34,81.87 207.57,86.76 C198.51,92.45 179.11,106.86 172.58,112.74 C168.76,116.18 165.05,119.00 164.34,119.00 C163.62,119.00 162.76,117.76 162.43,116.25 C159.82,104.46 156.92,96.49 150.54,83.50 C142.68,67.50 135.40,55.37 133.15,54.50 C131.59,53.91 131.66,54.52 134.59,67.71 C135.59,72.23 136.09,76.24 135.70,76.63 C135.31,77.02 131.51,73.75 127.25,69.37 C118.66,60.53 111.23,54.14 103.14,48.64 C94.64,42.87 93.41,44.22 100.26,51.79 C107.91,60.24 112.65,66.41 115.85,72.09 C118.67,77.08 119.84,81.00 118.52,81.00 C118.25,81.00 115.09,79.20 111.50,77.00 C100.59,70.32 100.15,71.81 109.90,82.32 C117.46,90.48 120.59,94.74 119.68,95.65 C119.35,95.98 116.16,95.07 112.57,93.64 C105.05,90.63 98.00,89.24 98.00,90.77 C98.00,92.05 102.81,96.18 111.10,102.00 C118.96,107.53 130.00,117.84 130.00,119.66 C130.00,121.75 128.34,121.28 122.49,117.53 C115.75,113.23 106.94,108.72 106.37,109.29 C106.14,109.53 107.08,111.99 108.47,114.76 C110.94,119.68 111.75,124.46 110.25,125.31 C109.84,125.54 105.26,124.68 100.07,123.39 C84.70,119.57 76.23,118.63 71.15,120.18 C68.76,120.90 66.74,121.95 66.65,122.50 C66.57,123.04 69.99,124.02 74.25,124.67 C83.14,126.03 93.00,130.12 93.00,132.44 C93.00,133.71 91.58,134.01 85.25,134.03 C75.89,134.08 64.49,136.04 56.89,138.91 C50.59,141.30 42.00,146.66 42.00,148.21 C42.00,149.40 48.99,148.34 50.45,146.92 C51.62,145.79 61.00,145.69 61.00,146.80 C61.00,147.25 59.38,149.16 57.40,151.05 C49.69,158.43 43.00,170.73 43.00,177.52 C43.00,182.47 44.71,181.85 50.41,174.85 C55.30,168.83 66.25,159.00 68.05,159.00 C69.53,159.00 69.22,160.23 66.00,167.34 C64.35,170.98 63.00,174.42 63.00,174.98 C63.00,177.04 65.65,175.89 71.00,171.50 C78.87,165.05 79.44,165.48 76.00,175.26 C74.01,180.91 73.32,188.01 74.75,187.99 C75.16,187.98 77.68,185.49 80.34,182.46 C85.45,176.63 93.97,171.03 97.75,171.01 C100.68,171.00 100.59,171.49 96.47,177.95 C90.88,186.73 92.03,187.33 100.66,180.14 C108.31,173.78 115.00,170.33 115.00,172.75 C115.00,173.16 113.18,175.52 110.95,178.00 C103.05,186.77 96.00,202.44 96.00,211.19 C96.00,216.22 97.11,215.48 101.18,207.72 C105.53,199.40 117.99,186.89 123.75,185.04 C128.89,183.39 130.00,184.18 127.65,187.79 C123.00,194.94 120.03,204.83 120.01,213.19 C120.01,216.32 120.39,219.12 120.87,219.42 C121.35,219.72 123.46,215.86 125.56,210.85 C131.09,197.67 140.35,188.00 147.45,188.00 L 150.00 188.00 L 150.00 209.31 C150.00,229.44 149.87,230.96 147.60,236.75 C143.01,248.46 140.07,264.78 138.45,287.50 C138.09,292.45 136.91,300.77 135.81,306.00 C134.33,313.08 133.99,317.28 134.49,322.50 C135.44,332.56 137.67,342.43 140.03,347.05 C141.88,350.69 142.01,352.22 141.45,363.78 C140.89,375.10 141.06,377.15 142.91,382.41 C145.39,389.41 145.53,392.31 143.50,394.00 C142.46,394.86 142.00,397.16 142.00,401.47 C142.00,410.81 143.10,411.49 158.36,411.55 C211.61,411.77 278.67,415.27 281.38,417.98 C282.84,419.44 278.65,420.44 254.44,424.42 C237.04,427.29 233.08,428.48 234.89,430.29 C235.76,431.16 245.04,431.68 267.80,432.14 C307.93,432.95 323.67,434.93 339.25,441.14 C347.25,444.33 348.63,446.06 344.80,448.11 C341.40,449.93 332.94,451.97 328.50,452.04 C322.26,452.15 310.50,455.41 310.50,457.04 C310.50,459.57 328.78,461.61 353.77,461.86 C367.07,461.99 368.79,461.78 379.27,458.78 ZM 293.00 376.04 C293.00,375.50 293.96,374.56 295.13,373.93 C296.77,373.05 297.44,373.09 298.06,374.10 C298.50,374.82 298.65,375.76 298.38,376.20 C297.67,377.34 293.00,377.19 293.00,376.04 Z" fill="rgb(196,198,199)"/>
<path d="M 0.00 256.00 L 0.00 0.00 L 256.00 0.00 L 512.00 0.00 L 512.00 256.00 L 512.00 512.00 L 256.00 512.00 L 0.00 512.00 L 0.00 256.00 ZM 379.27 458.78 C390.12,455.67 391.07,455.57 407.47,455.75 C417.07,455.86 428.85,456.64 434.60,457.54 C450.32,460.00 457.57,458.55 449.27,454.59 C440.68,450.50 432.39,448.01 417.37,445.03 C387.41,439.09 373.26,435.23 370.87,432.35 C369.34,430.49 369.87,430.11 376.15,428.47 C385.79,425.97 410.06,423.75 434.67,423.12 C464.69,422.35 467.72,421.07 447.74,417.59 C442.11,416.61 436.15,415.42 434.50,414.96 C423.59,411.88 393.18,408.27 370.50,407.36 C358.25,406.87 354.48,406.45 357.00,405.86 C362.81,404.50 387.72,402.00 395.48,402.00 C403.03,402.00 406.49,400.44 403.76,398.26 C395.81,391.91 364.57,384.44 343.66,383.89 C332.88,383.61 331.00,383.13 329.95,380.37 C329.08,378.07 328.71,378.00 317.91,378.00 L 306.78 378.00 L 307.44 374.45 C307.81,372.49 310.05,367.88 312.42,364.20 C319.90,352.59 321.00,349.77 321.00,342.24 C321.00,338.48 320.59,334.97 320.08,334.45 C319.27,333.61 316.49,323.00 311.58,302.00 C310.74,298.42 309.76,292.80 309.39,289.50 C309.03,286.20 308.39,283.05 307.98,282.50 C307.02,281.23 305.22,272.19 304.45,264.77 C304.13,261.61 303.44,258.77 302.93,258.46 C301.99,257.88 301.60,265.17 301.96,276.50 C302.31,287.36 298.44,323.94 295.35,339.00 C294.51,343.12 292.69,349.17 291.31,352.44 C288.70,358.66 282.38,368.61 279.57,370.94 C278.07,372.19 278.12,372.50 280.14,374.65 L 282.35 377.00 L 250.26 377.00 C226.94,377.00 218.06,377.31 217.78,378.15 C217.33,379.50 206.97,380.46 205.49,379.29 C204.94,378.86 202.51,375.80 200.08,372.50 C197.66,369.20 194.18,364.96 192.34,363.08 C190.50,361.20 189.00,359.32 189.00,358.89 C189.00,358.46 187.19,355.23 184.97,351.69 C181.53,346.20 181.09,344.90 181.94,342.67 C183.22,339.29 180.23,329.63 174.77,319.53 C174.19,318.45 173.39,313.72 172.99,309.03 C172.60,304.34 171.46,297.40 170.46,293.62 L 168.65 286.73 L 171.06 282.12 C172.38,279.58 176.92,274.07 181.13,269.87 C192.56,258.49 201.31,252.92 213.67,249.17 C235.16,242.64 256.17,244.20 276.17,253.81 C285.03,258.07 284.69,255.91 279.36,274.50 C270.25,306.23 255.78,338.43 241.46,358.86 C239.01,362.36 237.00,365.63 237.00,366.14 C237.00,368.09 242.96,369.23 253.50,369.30 C269.42,369.42 281.11,365.55 284.47,359.07 C288.00,352.23 292.28,329.75 295.51,301.00 C299.01,269.87 299.70,198.86 296.50,199.00 C295.95,199.03 294.98,202.30 294.35,206.27 C290.22,232.11 285.47,254.59 283.94,255.53 C283.50,255.81 280.51,254.72 277.32,253.10 C257.32,243.02 236.28,241.48 212.25,248.32 C198.48,252.25 181.36,265.08 172.11,278.42 C167.42,285.16 167.24,286.79 170.00,296.76 C172.19,304.67 172.55,309.00 171.00,309.00 C170.45,309.00 170.01,308.44 170.01,307.75 C170.02,307.06 168.60,302.11 166.85,296.74 C164.09,288.27 163.79,286.35 164.58,282.24 C165.28,278.64 165.05,275.34 163.63,268.50 C162.13,261.27 161.74,254.77 161.66,235.50 C161.55,209.70 162.27,203.56 167.68,184.25 C169.93,176.24 170.56,175.00 172.43,175.00 C174.86,175.00 180.53,180.55 183.96,186.30 C185.20,188.38 186.73,189.92 187.36,189.71 C188.64,189.27 188.75,183.23 187.62,175.00 L 186.87 169.50 L 189.09 172.00 C190.31,173.38 192.82,177.76 194.68,181.75 C199.83,192.80 201.43,191.17 198.42,177.94 C195.58,165.45 197.68,166.37 204.91,180.79 C207.74,186.45 210.50,190.81 211.03,190.48 C211.56,190.15 212.00,186.79 212.00,183.00 C212.00,179.20 212.48,175.82 213.07,175.46 C215.13,174.18 219.52,182.36 225.96,199.51 C229.98,210.21 231.41,212.92 232.50,211.83 C232.79,211.54 233.57,207.63 234.22,203.14 C234.91,198.38 235.85,195.11 236.46,195.31 C238.50,195.97 242.19,207.46 243.37,216.83 C244.09,222.56 245.06,226.52 245.80,226.77 C247.46,227.32 250.70,219.76 251.55,213.38 C252.16,208.72 250.73,193.05 249.35,189.48 C248.23,186.56 252.71,187.99 257.26,192.00 C264.25,198.15 264.82,197.21 259.54,188.21 C254.65,179.85 247.80,172.60 239.55,167.04 C230.82,161.14 229.08,159.29 231.43,158.39 C234.57,157.18 242.88,159.06 249.68,162.51 C257.36,166.40 258.00,166.56 258.00,164.62 C258.00,160.44 240.23,149.87 228.50,147.06 C225.75,146.41 222.40,145.15 221.05,144.28 L 218.60 142.69 L 222.48 139.33 C224.62,137.48 228.09,135.46 230.18,134.83 C237.57,132.61 234.39,131.52 217.25,130.39 C207.60,129.75 205.47,129.06 208.13,127.42 C210.30,126.08 223.54,124.00 230.00,123.99 C240.86,123.98 247.13,122.93 246.80,121.20 C246.47,119.51 238.40,116.48 231.46,115.44 C228.77,115.04 227.06,114.30 227.28,113.63 C227.79,112.09 240.23,108.13 247.00,107.35 C260.83,105.75 259.79,103.00 245.36,103.00 C233.46,103.00 232.76,102.30 240.09,97.75 C246.13,94.01 265.50,87.37 272.87,86.51 C276.19,86.13 279.43,85.18 280.08,84.41 C281.07,83.21 279.56,83.00 270.06,83.00 C257.25,83.00 248.30,84.19 235.50,87.60 C224.74,90.46 225.00,90.45 224.99,88.25 C224.99,87.29 228.90,82.79 233.69,78.25 C239.57,72.68 241.80,70.00 240.55,70.00 C238.71,70.00 215.34,81.87 207.57,86.76 C198.51,92.45 179.11,106.86 172.58,112.74 C168.76,116.18 165.05,119.00 164.34,119.00 C163.62,119.00 162.76,117.76 162.43,116.25 C159.82,104.46 156.92,96.49 150.54,83.50 C142.68,67.50 135.40,55.37 133.15,54.50 C131.59,53.91 131.66,54.52 134.59,67.71 C135.59,72.23 136.09,76.24 135.70,76.63 C135.31,77.02 131.51,73.75 127.25,69.37 C118.66,60.53 111.23,54.14 103.14,48.64 C94.64,42.87 93.41,44.22 100.26,51.79 C107.91,60.24 112.65,66.41 115.85,72.09 C118.67,77.08 119.84,81.00 118.52,81.00 C118.25,81.00 115.09,79.20 111.50,77.00 C100.59,70.32 100.15,71.81 109.90,82.32 C117.46,90.48 120.59,94.74 119.68,95.65 C119.35,95.98 116.16,95.07 112.57,93.64 C105.05,90.63 98.00,89.24 98.00,90.77 C98.00,92.05 102.81,96.18 111.10,102.00 C118.96,107.53 130.00,117.84 130.00,119.66 C130.00,121.75 128.34,121.28 122.49,117.53 C115.75,113.23 106.94,108.72 106.37,109.29 C106.14,109.53 107.08,111.99 108.47,114.76 C110.94,119.68 111.75,124.46 110.25,125.31 C109.84,125.54 105.26,124.68 100.07,123.39 C84.70,119.57 76.23,118.63 71.15,120.18 C68.76,120.90 66.74,121.95 66.65,122.50 C66.57,123.04 69.99,124.02 74.25,124.67 C83.14,126.03 93.00,130.12 93.00,132.44 C93.00,133.71 91.58,134.01 85.25,134.03 C75.89,134.08 64.49,136.04 56.89,138.91 C50.59,141.30 42.00,146.66 42.00,148.21 C42.00,149.40 48.99,148.34 50.45,146.92 C51.62,145.79 61.00,145.69 61.00,146.80 C61.00,147.25 59.38,149.16 57.40,151.05 C49.69,158.43 43.00,170.73 43.00,177.52 C43.00,182.47 44.71,181.85 50.41,174.85 C55.30,168.83 66.25,159.00 68.05,159.00 C69.53,159.00 69.22,160.23 66.00,167.34 C64.35,170.98 63.00,174.42 63.00,174.98 C63.00,177.04 65.65,175.89 71.00,171.50 C78.87,165.05 79.44,165.48 76.00,175.26 C74.01,180.91 73.32,188.01 74.75,187.99 C75.16,187.98 77.68,185.49 80.34,182.46 C85.45,176.63 93.97,171.03 97.75,171.01 C100.68,171.00 100.59,171.49 96.47,177.95 C90.88,186.73 92.03,187.33 100.66,180.14 C108.31,173.78 115.00,170.33 115.00,172.75 C115.00,173.16 113.18,175.52 110.95,178.00 C103.05,186.77 96.00,202.44 96.00,211.19 C96.00,216.22 97.11,215.48 101.18,207.72 C105.53,199.40 117.99,186.89 123.75,185.04 C128.89,183.39 130.00,184.18 127.65,187.79 C123.00,194.94 120.03,204.83 120.01,213.19 C120.01,216.32 120.39,219.12 120.87,219.42 C121.35,219.72 123.46,215.86 125.56,210.85 C131.09,197.67 140.35,188.00 147.45,188.00 L 150.00 188.00 L 150.00 209.31 C150.00,229.44 149.87,230.96 147.60,236.75 C143.01,248.46 140.07,264.78 138.45,287.50 C138.09,292.45 136.91,300.77 135.81,306.00 C134.33,313.08 133.99,317.28 134.49,322.50 C135.44,332.56 137.67,342.43 140.03,347.05 C141.88,350.69 142.01,352.22 141.45,363.78 C140.89,375.10 141.06,377.15 142.91,382.41 C145.39,389.41 145.53,392.31 143.50,394.00 C142.46,394.86 142.00,397.16 142.00,401.47 C142.00,410.81 143.10,411.49 158.36,411.55 C211.61,411.77 278.67,415.27 281.38,417.98 C282.84,419.44 278.65,420.44 254.44,424.42 C237.04,427.29 233.08,428.48 234.89,430.29 C235.76,431.16 245.04,431.68 267.80,432.14 C307.93,432.95 323.67,434.93 339.25,441.14 C347.25,444.33 348.63,446.06 344.80,448.11 C341.40,449.93 332.94,451.97 328.50,452.04 C322.26,452.15 310.50,455.41 310.50,457.04 C310.50,459.57 328.78,461.61 353.77,461.86 C367.07,461.99 368.79,461.78 379.27,458.78 ZM 293.00 376.04 C293.00,375.50 293.96,374.56 295.13,373.93 C296.77,373.05 297.44,373.09 298.06,374.10 C298.50,374.82 298.65,375.76 298.38,376.20 C297.67,377.34 293.00,377.19 293.00,376.04 Z" fill="rgb(243,143,35)"/>
<path d="M 0.00 256.00 L 0.00 0.00 L 256.00 0.00 L 512.00 0.00 L 512.00 256.00 L 512.00 512.00 L 256.00 512.00 L 0.00 512.00 L 0.00 256.00 ZM 379.27 458.78 C390.12,455.67 391.07,455.57 407.47,455.75 C417.07,455.86 428.85,456.64 434.60,457.54 C450.32,460.00 457.57,458.55 449.27,454.59 C440.68,450.50 432.39,448.01 417.37,445.03 C387.41,439.09 373.26,435.23 370.87,432.35 C369.34,430.49 369.87,430.11 376.15,428.47 C385.79,425.97 410.06,423.75 434.67,423.12 C464.69,422.35 467.72,421.07 447.74,417.59 C442.11,416.61 436.15,415.42 434.50,414.96 C423.59,411.88 393.18,408.27 370.50,407.36 C358.25,406.87 354.48,406.45 357.00,405.86 C362.81,404.50 387.72,402.00 395.48,402.00 C403.03,402.00 406.49,400.44 403.76,398.26 C395.81,391.91 364.57,384.44 343.66,383.89 C332.88,383.61 331.00,383.13 329.95,380.37 C329.08,378.07 328.71,378.00 317.91,378.00 L 306.78 378.00 L 307.44 374.45 C307.81,372.49 310.05,367.88 312.42,364.20 C320.55,351.58 320.71,351.06 321.45,334.00 C321.96,322.36 321.77,316.51 320.69,310.50 C319.08,301.55 314.68,291.01 310.17,285.29 C307.13,281.44 305.62,276.00 304.45,264.77 C303.65,257.03 302.00,256.36 302.00,263.77 C302.00,270.15 301.59,271.16 299.34,270.30 C298.08,269.82 297.96,266.01 298.47,243.62 C299.07,216.90 298.28,198.92 296.50,199.00 C295.95,199.03 294.98,202.30 294.35,206.27 C290.22,232.11 285.47,254.59 283.94,255.53 C283.50,255.81 280.51,254.72 277.32,253.10 C257.32,243.02 236.28,241.48 212.25,248.32 C198.48,252.25 181.36,265.08 172.11,278.42 C167.42,285.16 167.24,286.79 170.00,296.76 C172.19,304.67 172.55,309.00 171.00,309.00 C170.45,309.00 170.01,308.44 170.01,307.75 C170.02,307.06 168.60,302.11 166.85,296.74 C164.09,288.27 163.79,286.35 164.58,282.24 C165.28,278.64 165.05,275.34 163.63,268.50 C162.13,261.27 161.74,254.77 161.66,235.50 C161.55,209.70 162.27,203.56 167.68,184.25 C169.93,176.24 170.56,175.00 172.43,175.00 C174.86,175.00 180.53,180.55 183.96,186.30 C185.20,188.38 186.73,189.92 187.36,189.71 C188.64,189.27 188.75,183.23 187.62,175.00 L 186.87 169.50 L 189.09 172.00 C190.31,173.38 192.82,177.76 194.68,181.75 C199.83,192.80 201.43,191.17 198.42,177.94 C195.58,165.45 197.68,166.37 204.91,180.79 C207.74,186.45 210.50,190.81 211.03,190.48 C211.56,190.15 212.00,186.79 212.00,183.00 C212.00,179.20 212.48,175.82 213.07,175.46 C215.13,174.18 219.52,182.36 225.96,199.51 C229.98,210.21 231.41,212.92 232.50,211.83 C232.79,211.54 233.57,207.63 234.22,203.14 C234.91,198.38 235.85,195.11 236.46,195.31 C238.50,195.97 242.19,207.46 243.37,216.83 C244.09,222.56 245.06,226.52 245.80,226.77 C247.46,227.32 250.70,219.76 251.55,213.38 C252.16,208.72 250.73,193.05 249.35,189.48 C248.23,186.56 252.71,187.99 257.26,192.00 C264.25,198.15 264.82,197.21 259.54,188.21 C254.65,179.85 247.80,172.60 239.55,167.04 C230.82,161.14 229.08,159.29 231.43,158.39 C234.57,157.18 242.88,159.06 249.68,162.51 C257.36,166.40 258.00,166.56 258.00,164.62 C258.00,160.44 240.23,149.87 228.50,147.06 C225.75,146.41 222.40,145.15 221.05,144.28 L 218.60 142.69 L 222.48 139.33 C224.62,137.48 228.09,135.46 230.18,134.83 C237.57,132.61 234.39,131.52 217.25,130.39 C207.60,129.75 205.47,129.06 208.13,127.42 C210.30,126.08 223.54,124.00 230.00,123.99 C240.86,123.98 247.13,122.93 246.80,121.20 C246.47,119.51 238.40,116.48 231.46,115.44 C228.77,115.04 227.06,114.30 227.28,113.63 C227.79,112.09 240.23,108.13 247.00,107.35 C260.83,105.75 259.79,103.00 245.36,103.00 C233.46,103.00 232.76,102.30 240.09,97.75 C246.13,94.01 265.50,87.37 272.87,86.51 C276.19,86.13 279.43,85.18 280.08,84.41 C281.07,83.21 279.56,83.00 270.06,83.00 C257.25,83.00 248.30,84.19 235.50,87.60 C224.74,90.46 225.00,90.45 224.99,88.25 C224.99,87.29 228.90,82.79 233.69,78.25 C239.57,72.68 241.80,70.00 240.55,70.00 C238.71,70.00 215.34,81.87 207.57,86.76 C198.51,92.45 179.11,106.86 172.58,112.74 C168.76,116.18 165.05,119.00 164.34,119.00 C163.62,119.00 162.76,117.76 162.43,116.25 C159.82,104.46 156.92,96.49 150.54,83.50 C142.68,67.50 135.40,55.37 133.15,54.50 C131.59,53.91 131.66,54.52 134.59,67.71 C135.59,72.23 136.09,76.24 135.70,76.63 C135.31,77.02 131.51,73.75 127.25,69.37 C118.66,60.53 111.23,54.14 103.14,48.64 C94.64,42.87 93.41,44.22 100.26,51.79 C107.91,60.24 112.65,66.41 115.85,72.09 C118.67,77.08 119.84,81.00 118.52,81.00 C118.25,81.00 115.09,79.20 111.50,77.00 C100.59,70.32 100.15,71.81 109.90,82.32 C117.46,90.48 120.59,94.74 119.68,95.65 C119.35,95.98 116.16,95.07 112.57,93.64 C105.05,90.63 98.00,89.24 98.00,90.77 C98.00,92.05 102.81,96.18 111.10,102.00 C118.96,107.53 130.00,117.84 130.00,119.66 C130.00,121.75 128.34,121.28 122.49,117.53 C115.75,113.23 106.94,108.72 106.37,109.29 C106.14,109.53 107.08,111.99 108.47,114.76 C110.94,119.68 111.75,124.46 110.25,125.31 C109.84,125.54 105.26,124.68 100.07,123.39 C84.70,119.57 76.23,118.63 71.15,120.18 C68.76,120.90 66.74,121.95 66.65,122.50 C66.57,123.04 69.99,124.02 74.25,124.67 C83.14,126.03 93.00,130.12 93.00,132.44 C93.00,133.71 91.58,134.01 85.25,134.03 C75.89,134.08 64.49,136.04 56.89,138.91 C50.59,141.30 42.00,146.66 42.00,148.21 C42.00,149.40 48.99,148.34 50.45,146.92 C51.62,145.79 61.00,145.69 61.00,146.80 C61.00,147.25 59.38,149.16 57.40,151.05 C49.69,158.43 43.00,170.73 43.00,177.52 C43.00,182.47 44.71,181.85 50.41,174.85 C55.30,168.83 66.25,159.00 68.05,159.00 C69.53,159.00 69.22,160.23 66.00,167.34 C64.35,170.98 63.00,174.42 63.00,174.98 C63.00,177.04 65.65,175.89 71.00,171.50 C78.87,165.05 79.44,165.48 76.00,175.26 C74.01,180.91 73.32,188.01 74.75,187.99 C75.16,187.98 77.68,185.49 80.34,182.46 C85.45,176.63 93.97,171.03 97.75,171.01 C100.68,171.00 100.59,171.49 96.47,177.95 C90.88,186.73 92.03,187.33 100.66,180.14 C108.31,173.78 115.00,170.33 115.00,172.75 C115.00,173.16 113.18,175.52 110.95,178.00 C103.05,186.77 96.00,202.44 96.00,211.19 C96.00,216.22 97.11,215.48 101.18,207.72 C105.53,199.40 117.99,186.89 123.75,185.04 C128.89,183.39 130.00,184.18 127.65,187.79 C123.00,194.94 120.03,204.83 120.01,213.19 C120.01,216.32 120.39,219.12 120.87,219.42 C121.35,219.72 123.46,215.86 125.56,210.85 C131.09,197.67 140.35,188.00 147.45,188.00 L 150.00 188.00 L 150.00 209.31 C150.00,229.44 149.87,230.96 147.60,236.75 C143.01,248.46 140.07,264.78 138.45,287.50 C138.09,292.45 136.91,300.77 135.81,306.00 C134.33,313.08 133.99,317.28 134.49,322.50 C135.44,332.56 137.67,342.43 140.03,347.05 C141.88,350.69 142.01,352.22 141.45,363.78 C140.89,375.10 141.06,377.15 142.91,382.41 C145.39,389.41 145.53,392.31 143.50,394.00 C142.46,394.86 142.00,397.16 142.00,401.47 C142.00,410.81 143.10,411.49 158.36,411.55 C211.61,411.77 278.67,415.27 281.38,417.98 C282.84,419.44 278.65,420.44 254.44,424.42 C237.04,427.29 233.08,428.48 234.89,430.29 C235.76,431.16 245.04,431.68 267.80,432.14 C307.93,432.95 323.67,434.93 339.25,441.14 C347.25,444.33 348.63,446.06 344.80,448.11 C341.40,449.93 332.94,451.97 328.50,452.04 C322.26,452.15 310.50,455.41 310.50,457.04 C310.50,459.57 328.78,461.61 353.77,461.86 C367.07,461.99 368.79,461.78 379.27,458.78 Z" fill="rgb(254,254,254)"/>
</g>
</svg>